<svg width="920" height="242" viewBox="0 0 920 242" fill="none" xmlns="http://www.w3.org/2000/svg">
<rect width="920" height="242" rx="8" fill="#BEE8FF"/>
<rect width="920" height="128" transform="translate(0 114)" fill="#E5D1FF"/>
<rect x="52" y="197" width="740" height="8" rx="4" fill="#D1ADFF"/>
<rect x="52" y="197" width="255.601" height="8" rx="4" fill="#9747FF"/>
<g clip-path="url(#clip0_200_10630)">
<path opacity="0.6" d="M305.508 189C313.406 189 319.807 188.319 319.807 187.478C319.807 186.637 313.406 185.956 305.508 185.956C297.611 185.956 291.209 186.637 291.209 187.478C291.209 188.319 297.611 189 305.508 189Z" fill="#40A45D"/>
<path d="M313.643 153.229C315.111 151.812 315.111 149.492 313.643 148.075L313.379 147.82C312.903 147.36 312.131 147.36 311.654 147.82L308.905 150.475" fill="#A5BFC4"/>
<path d="M313.643 153.229C315.111 151.812 315.111 149.492 313.643 148.075L313.379 147.82C312.903 147.36 312.131 147.36 311.654 147.82L308.905 150.475" stroke="black" stroke-miterlimit="10" stroke-linecap="round"/>
<path fill-rule="evenodd" clip-rule="evenodd" d="M288.986 176.998C285.69 176.998 282.995 174.343 282.995 171.098V161.818C282.995 158.573 285.69 155.918 288.986 155.918C292.28 155.918 294.977 158.573 294.977 161.818V171.098C294.977 174.343 292.28 176.998 288.986 176.998Z" fill="#FCE47E"/>
<path d="M288.986 176.998C285.69 176.998 282.995 174.343 282.995 171.098V161.818C282.995 158.573 285.69 155.918 288.986 155.918C292.28 155.918 294.977 158.573 294.977 161.818V171.098C294.977 174.343 292.28 176.998 288.986 176.998Z" stroke="black"/>
<path fill-rule="evenodd" clip-rule="evenodd" d="M290.725 176.998C287.47 176.998 284.539 178.37 282.497 180.558C284.539 182.746 287.47 184.118 290.725 184.118C293.981 184.118 296.911 182.746 298.953 180.558C296.911 178.37 293.981 176.998 290.725 176.998Z" fill="#A5BFC4"/>
<mask id="mask0_200_10630" style="mask-type:alpha" maskUnits="userSpaceOnUse" x="282" y="176" width="14" height="9">
<path fill-rule="evenodd" clip-rule="evenodd" d="M295.123 183.265C293.795 183.814 292.336 184.118 290.805 184.118C287.549 184.118 284.619 182.746 282.577 180.558C284.619 178.369 287.549 176.998 290.805 176.998C292.336 176.998 293.795 177.301 295.123 177.85V183.265Z" fill="white"/>
</mask>
<g mask="url(#mask0_200_10630)">
<path fill-rule="evenodd" clip-rule="evenodd" d="M279.403 185.96H285.087V173.498H279.403V185.96Z" fill="#6C888C"/>
<path fill-rule="evenodd" clip-rule="evenodd" d="M287.06 185.746H289.998V173.283H287.06V185.746Z" fill="#6C888C"/>
<path fill-rule="evenodd" clip-rule="evenodd" d="M292.185 185.746H295.123V173.283H292.185V185.746Z" fill="#6C888C"/>
</g>
<path d="M299.765 180.558L300.116 180.919L300.499 180.558L300.116 180.197L299.765 180.558ZM290.777 176.498C287.887 176.498 285.129 177.385 282.805 179.064L283.405 179.87C285.555 178.318 288.102 177.498 290.777 177.498V176.498ZM282.805 179.064C282.319 179.415 282.04 179.963 282.04 180.558H283.055C283.055 180.278 283.182 180.031 283.405 179.87L282.805 179.064ZM282.04 180.558C282.04 181.153 282.319 181.7 282.805 182.051L283.406 181.245C283.183 181.083 283.055 180.837 283.055 180.558H282.04ZM282.805 182.051C285.129 183.73 287.887 184.618 290.777 184.618V183.618C288.102 183.618 285.555 182.797 283.406 181.245L282.805 182.051ZM290.777 184.618C294.257 184.618 297.613 183.279 300.116 180.919L299.414 180.197C297.099 182.38 293.993 183.618 290.777 183.618V184.618ZM300.116 180.197C297.613 177.836 294.257 176.498 290.777 176.498V177.498C293.993 177.498 297.099 178.736 299.414 180.919L300.116 180.197Z" fill="black"/>
<path fill-rule="evenodd" clip-rule="evenodd" d="M317.578 163.352L320.619 163.302C322.382 163.302 323.812 164.71 323.812 166.447C323.812 168.184 322.382 169.591 320.619 169.591H319.395H317.616" fill="#A5BFC4"/>
<path d="M317.578 163.352L320.619 163.302C322.382 163.302 323.812 164.71 323.812 166.447C323.812 168.184 322.382 169.591 320.619 169.591H319.395H317.616" stroke="black"/>
<path fill-rule="evenodd" clip-rule="evenodd" d="M318.033 169.592H310.652L310.949 163.353L318.033 163.302" fill="white"/>
<path fill-rule="evenodd" clip-rule="evenodd" d="M316.332 178.97V182.419C316.332 184.675 314.475 186.504 312.184 186.504C309.893 186.504 308.036 184.675 308.036 182.419V180.853V182.083" fill="#A5BFC4"/>
<path d="M316.332 178.66V182.287C316.332 184.616 314.414 186.504 312.049 186.504C309.684 186.504 307.766 184.616 307.766 182.287V179.658" stroke="black" stroke-linecap="round" stroke-linejoin="round"/>
<path fill-rule="evenodd" clip-rule="evenodd" d="M309.798 174.151C309.071 174.151 308.363 174.07 307.697 173.902C306.838 173.686 306.32 172.824 306.539 171.978C306.758 171.132 307.632 170.622 308.493 170.837C310.347 171.305 312.959 170.646 314.843 169.236C316.153 168.255 316.918 167.061 316.942 165.958C316.976 164.322 312.138 162.091 307.773 161.112C306.908 160.918 306.367 160.071 306.563 159.22C306.76 158.368 307.618 157.833 308.484 158.028C310.452 158.468 320.261 160.918 320.153 166.024C320.108 168.128 318.912 170.164 316.786 171.755C314.727 173.295 312.158 174.151 309.798 174.151Z" fill="#FCE47E"/>
<path d="M309.798 174.151C309.071 174.151 308.363 174.07 307.697 173.902C306.838 173.686 306.32 172.824 306.539 171.978C306.758 171.132 307.632 170.622 308.493 170.837C310.347 171.305 312.959 170.646 314.843 169.236C316.153 168.255 316.918 167.061 316.942 165.958C316.976 164.322 312.138 162.091 307.773 161.112C306.908 160.918 306.367 160.071 306.563 159.22C306.76 158.368 307.618 157.833 308.484 158.028C310.452 158.468 320.261 160.918 320.153 166.024C320.108 168.128 318.912 170.164 316.786 171.755C314.727 173.295 312.158 174.151 309.798 174.151Z" stroke="black"/>
<path fill-rule="evenodd" clip-rule="evenodd" d="M305.028 185.017C312.091 185.017 317.871 179.326 317.871 172.37V160.443C317.871 153.487 312.091 147.796 305.028 147.796C297.964 147.796 292.185 153.487 292.185 160.443V172.37C292.185 179.326 297.964 185.017 305.028 185.017Z" fill="#A5BFC4"/>
<mask id="mask1_200_10630" style="mask-type:alpha" maskUnits="userSpaceOnUse" x="303" y="168" width="12" height="18">
<path fill-rule="evenodd" clip-rule="evenodd" d="M314.592 180.788C312.236 183.38 308.817 185.017 305.028 185.017C304.667 185.017 304.31 185.002 303.957 184.973V168.283H314.592V180.788Z" fill="white"/>
</mask>
<g mask="url(#mask1_200_10630)">
<path fill-rule="evenodd" clip-rule="evenodd" d="M309.275 190.053C312.211 190.053 314.592 187.709 314.592 184.817V173.519C314.592 170.627 312.211 168.283 309.275 168.283C306.338 168.283 303.957 170.627 303.957 173.519V184.817C303.957 187.709 306.338 190.053 309.275 190.053Z" fill="white" fill-opacity="0.24"/>
</g>
<mask id="mask2_200_10630" style="mask-type:alpha" maskUnits="userSpaceOnUse" x="292" y="161" width="26" height="25">
<path fill-rule="evenodd" clip-rule="evenodd" d="M292.219 161.806V172.37C292.219 179.326 297.998 185.017 305.062 185.017C312.125 185.017 317.905 179.326 317.905 172.37V161.806H292.219Z" fill="white"/>
</mask>
<g mask="url(#mask2_200_10630)">
<path fill-rule="evenodd" clip-rule="evenodd" d="M292.5 173.005C292.5 179.639 297.962 185.017 304.698 185.017H306.476C313.213 185.017 318.674 179.639 318.674 173.005H292.5Z" fill="#0BAF17"/>
<path fill-rule="evenodd" clip-rule="evenodd" d="M317.871 173.55H291.722V161.806L306.659 165.013L308.742 169.977C308.889 170.324 309.387 170.324 309.533 169.976L311.618 164.991L317.871 161.806V173.55Z" fill="white"/>
<path fill-rule="evenodd" clip-rule="evenodd" d="M304.555 173.077H301.888V163.634L304.555 164.178V173.077Z" fill="#0BAF17"/>
<path fill-rule="evenodd" clip-rule="evenodd" d="M315.771 172.97H313.104V164.197L315.771 162.861V172.97Z" fill="#0BAF17"/>
</g>
<path d="M292.302 173.412H317.776" stroke="black"/>
<path opacity="0.42" fill-rule="evenodd" clip-rule="evenodd" d="M306.974 155.878C307.739 157.203 307.268 158.888 305.922 159.642C305.058 160.126 302.797 160.083 301.289 159.989C300.583 159.946 300.155 159.204 300.478 158.583C301.168 157.26 302.287 155.325 303.151 154.842C304.497 154.088 306.208 154.552 306.974 155.878Z" fill="white"/>
<path opacity="0.42" fill-rule="evenodd" clip-rule="evenodd" d="M310.909 156.058C311.598 154.692 313.281 154.136 314.668 154.815C315.558 155.25 316.784 157.121 317.547 158.405C317.905 159.006 317.52 159.77 316.816 159.853C315.316 160.028 313.062 160.195 312.172 159.759C310.785 159.08 310.22 157.423 310.909 156.058Z" fill="white"/>
<path fill-rule="evenodd" clip-rule="evenodd" d="M315.28 157.147C315.28 157.825 314.721 158.374 314.032 158.374C313.344 158.374 312.786 157.824 312.786 157.146C312.786 156.467 313.345 155.918 314.034 155.918C314.722 155.918 315.28 156.468 315.28 157.147Z" fill="black"/>
<path fill-rule="evenodd" clip-rule="evenodd" d="M306.986 157.147C306.986 157.825 306.427 158.374 305.738 158.374C305.05 158.374 304.492 157.824 304.492 157.146C304.492 156.467 305.051 155.918 305.739 155.918C306.428 155.918 306.986 156.468 306.986 157.147Z" fill="black"/>
<path d="M305.028 185.017C312.091 185.017 317.871 179.326 317.871 172.37V160.444C317.871 153.487 312.091 147.796 305.028 147.796C297.964 147.796 292.185 153.487 292.185 160.444V172.37C292.185 179.326 297.964 185.017 305.028 185.017Z" stroke="black"/>
<path fill-rule="evenodd" clip-rule="evenodd" d="M293.889 174.151C293.161 174.151 292.454 174.07 291.787 173.902C290.929 173.686 290.41 172.824 290.63 171.978C290.848 171.132 291.722 170.622 292.583 170.838C294.438 171.305 297.049 170.646 298.933 169.237C300.243 168.256 301.009 167.061 301.033 165.958C301.067 164.323 296.228 162.092 291.863 161.113C290.999 160.919 290.457 160.072 290.654 159.22C290.85 158.368 291.708 157.833 292.575 158.028C294.542 158.468 304.352 160.919 304.243 166.025C304.199 168.129 303.002 170.164 300.876 171.755C298.817 173.296 296.248 174.151 293.889 174.151Z" fill="#FCE47E" stroke="black"/>
<path fill-rule="evenodd" clip-rule="evenodd" d="M309.177 146.01C308.553 144.193 306.809 142.883 304.753 142.883C302.698 142.883 300.954 144.193 300.331 146.01H309.177Z" fill="#1DCC70" stroke="black"/>
<path fill-rule="evenodd" clip-rule="evenodd" d="M303.43 145.617C302.994 145.617 302.637 145.265 302.637 144.835V142.59C302.637 142.16 302.994 141.808 303.43 141.808C303.867 141.808 304.224 142.16 304.224 142.59V144.835C304.224 145.265 303.867 145.617 303.43 145.617Z" fill="#FD4242"/>
<path fill-rule="evenodd" clip-rule="evenodd" d="M310.424 146.832C310.424 147.878 309.555 148.734 308.493 148.734H300.957C299.895 148.734 299.026 147.878 299.026 146.832C299.026 146.374 299.404 146.001 299.87 146.001H309.58C310.046 146.001 310.424 146.374 310.424 146.832Z" fill="#0BAF17"/>
<path d="M310.424 146.832C310.424 147.878 309.555 148.734 308.493 148.734H300.957C299.895 148.734 299.026 147.878 299.026 146.832C299.026 146.374 299.404 146.001 299.87 146.001H309.58C310.046 146.001 310.424 146.374 310.424 146.832Z" stroke="black"/>
<path fill-rule="evenodd" clip-rule="evenodd" d="M303.938 182.419C303.938 184.676 302.08 186.505 299.789 186.505C297.499 186.505 295.641 184.676 295.641 182.419" fill="#0BAF17"/>
<path fill-rule="evenodd" clip-rule="evenodd" d="M303.938 180.195V182.42C303.938 184.676 302.08 186.505 299.789 186.505C297.499 186.505 295.641 184.676 295.641 182.42V180.446" fill="#0BAF17"/>
<path fill-rule="evenodd" clip-rule="evenodd" d="M303.938 182.419C303.938 184.676 302.08 186.505 299.789 186.505C297.499 186.505 295.641 184.676 295.641 182.419" fill="#A5BFC4"/>
<path d="M302.57 167.438L301.778 166.658L299.532 164.445L294.501 168.385L298.055 171.885C299.302 173.114 301.324 173.114 302.57 171.885C303.818 170.658 303.818 168.667 302.57 167.438Z" fill="white"/>
<path fill-rule="evenodd" clip-rule="evenodd" d="M301.778 166.658L302.57 167.439C303.818 168.667 303.818 170.658 302.57 171.886C301.324 173.114 299.302 173.114 298.055 171.886L297.19 171.034" fill="#A5BFC4"/>
<path fill-rule="evenodd" clip-rule="evenodd" d="M323.951 186.505C323.065 186.505 322.345 185.795 322.345 184.924V155.452C322.345 154.579 323.065 153.87 323.951 153.87C324.836 153.87 325.557 154.579 325.557 155.452V157.756C325.769 157.656 326.004 157.603 326.247 157.603C326.675 157.603 327.079 157.768 327.382 158.067C327.686 158.366 327.852 158.763 327.852 159.185C327.852 159.608 327.686 160.005 327.382 160.304L325.557 162.101V184.924C325.557 185.795 324.836 186.505 323.951 186.505Z" fill="#FCE47E"/>
<path d="M323.951 186.505C323.065 186.505 322.345 185.795 322.345 184.924V155.452C322.345 154.579 323.065 153.87 323.951 153.87C324.836 153.87 325.557 154.579 325.557 155.452V157.756C325.769 157.656 326.004 157.603 326.247 157.603C326.675 157.603 327.079 157.768 327.382 158.067C327.686 158.366 327.852 158.763 327.852 159.185C327.852 159.608 327.686 160.005 327.382 160.304L325.557 162.101V184.924C325.557 185.795 324.836 186.505 323.951 186.505Z" stroke="black"/>
<path fill-rule="evenodd" clip-rule="evenodd" d="M307.812 159.22C308.651 158.839 309.626 158.839 310.465 159.22C310.981 159.454 311.09 160.13 310.689 160.526L309.722 161.478C309.4 161.795 308.877 161.795 308.556 161.478L307.588 160.526C307.187 160.13 307.297 159.454 307.812 159.22Z" fill="black"/>
<path fill-rule="evenodd" clip-rule="evenodd" d="M284.306 172.857C282.142 172.857 280.389 171.13 280.389 168.999V166.243C280.389 164.113 282.142 162.385 284.306 162.385C286.469 162.385 288.223 164.113 288.223 166.243V168.999C288.223 171.13 286.469 172.857 284.306 172.857Z" fill="#FCE47E"/>
<path d="M284.306 172.857C282.142 172.857 280.389 171.13 280.389 168.999V166.243C280.389 164.113 282.142 162.385 284.306 162.385C286.469 162.385 288.223 164.113 288.223 166.243V168.999C288.223 171.13 286.469 172.857 284.306 172.857Z" stroke="black"/>
<path fill-rule="evenodd" clip-rule="evenodd" d="M289.569 156.433C289.569 158.583 287.8 160.325 285.618 160.325C283.435 160.325 281.666 158.583 281.666 156.433C281.666 154.284 283.435 152.542 285.618 152.542C287.8 152.542 289.569 154.284 289.569 156.433Z" fill="#FD4242"/>
<path d="M289.569 156.433C289.569 158.583 287.8 160.325 285.618 160.325C283.435 160.325 281.666 158.583 281.666 156.433C281.666 154.284 283.435 152.542 285.618 152.542C287.8 152.542 289.569 154.284 289.569 156.433Z" stroke="black"/>
<path d="M294.5 168.385L298.055 171.885C299.301 173.114 301.323 173.114 302.57 171.885C303.818 170.658 303.818 168.667 302.57 167.438L301.778 166.658L299.531 164.445" stroke="black" stroke-linecap="round"/>
<path fill-rule="evenodd" clip-rule="evenodd" d="M307.497 168.855C307.19 169.291 307.11 169.929 307.459 170.333C307.623 170.521 307.891 170.641 308.132 170.568C308.404 170.486 308.552 170.201 308.638 169.934C308.819 169.368 308.853 168.769 308.886 168.177C308.888 168.569 308.89 168.965 308.991 169.344C309.091 169.722 309.302 170.088 309.639 170.295C309.976 170.503 310.45 170.518 310.754 170.266C311.03 170.037 311.115 169.644 311.065 169.292C311 168.827 310.604 168.394 310.205 168.137C309.215 167.498 308.127 167.959 307.497 168.855Z" stroke="black" stroke-linecap="round" stroke-linejoin="round"/>
<path d="M306.091 167.595C307.943 167.703 309.828 167.66 311.655 167.468" stroke="black" stroke-linecap="round" stroke-linejoin="round"/>
<path d="M280.389 166.447H288.378" stroke="black"/>
<path d="M304.207 179.658V182.288C304.207 184.617 302.289 186.505 299.924 186.505C297.559 186.505 295.641 184.617 295.641 182.288V179.658" stroke="black" stroke-linecap="round" stroke-linejoin="round"/>
<path d="M295.677 182.009H304.17" stroke="black"/>
<path d="M309.138 160.629V162.903" stroke="black" stroke-linecap="round"/>
<path d="M307.182 162.505C308.263 163.569 310.014 163.569 311.095 162.505" stroke="black" stroke-linecap="round"/>
<path d="M296.007 153.229C294.539 151.812 294.539 149.492 296.007 148.075L296.27 147.82C296.747 147.36 297.519 147.36 297.995 147.82L300.744 150.475" fill="#A5BFC4"/>
<path d="M296.007 153.229C294.539 151.812 294.539 149.492 296.007 148.075L296.27 147.82C296.747 147.36 297.519 147.36 297.995 147.82L300.744 150.475" stroke="black" stroke-miterlimit="10" stroke-linecap="round"/>
</g>
<path d="M812.991 222.632H810.435L810.421 221.224H812.567C812.946 221.224 813.256 221.176 813.497 221.08C813.739 220.98 813.919 220.836 814.037 220.649C814.16 220.458 814.222 220.226 814.222 219.952C814.222 219.642 814.162 219.392 814.044 219.2C813.93 219.009 813.75 218.87 813.504 218.783C813.262 218.697 812.95 218.653 812.567 218.653H811.146V227H809.095V217.047H812.567C813.146 217.047 813.663 217.102 814.119 217.211C814.579 217.32 814.969 217.487 815.288 217.71C815.607 217.933 815.851 218.216 816.02 218.558C816.188 218.895 816.272 219.296 816.272 219.761C816.272 220.171 816.179 220.549 815.992 220.896C815.81 221.242 815.521 221.524 815.124 221.743C814.732 221.962 814.219 222.083 813.586 222.105L812.991 222.632ZM812.902 227H809.874L810.674 225.4H812.902C813.262 225.4 813.556 225.343 813.784 225.229C814.012 225.111 814.181 224.951 814.29 224.751C814.399 224.55 814.454 224.32 814.454 224.061C814.454 223.769 814.404 223.516 814.304 223.302C814.208 223.088 814.053 222.924 813.839 222.81C813.625 222.691 813.342 222.632 812.991 222.632H811.016L811.029 221.224H813.49L813.962 221.777C814.568 221.768 815.056 221.875 815.425 222.099C815.799 222.317 816.07 222.602 816.238 222.953C816.411 223.304 816.498 223.68 816.498 224.081C816.498 224.719 816.359 225.257 816.081 225.694C815.803 226.127 815.395 226.453 814.857 226.672C814.324 226.891 813.673 227 812.902 227ZM821.317 227.137C820.743 227.137 820.228 227.046 819.772 226.863C819.317 226.676 818.929 226.419 818.61 226.091C818.296 225.763 818.054 225.382 817.886 224.949C817.717 224.512 817.633 224.047 817.633 223.555V223.281C817.633 222.721 817.713 222.208 817.872 221.743C818.032 221.278 818.259 220.875 818.556 220.533C818.856 220.191 819.221 219.929 819.649 219.747C820.078 219.56 820.561 219.467 821.099 219.467C821.623 219.467 822.088 219.553 822.493 219.727C822.899 219.9 823.238 220.146 823.512 220.465C823.79 220.784 823.999 221.167 824.141 221.613C824.282 222.055 824.353 222.548 824.353 223.09V223.91H818.474V222.598H822.418V222.447C822.418 222.174 822.368 221.93 822.268 221.716C822.172 221.497 822.026 221.324 821.83 221.196C821.634 221.069 821.383 221.005 821.078 221.005C820.818 221.005 820.595 221.062 820.408 221.176C820.221 221.29 820.069 221.449 819.95 221.654C819.836 221.859 819.75 222.101 819.69 222.379C819.636 222.652 819.608 222.953 819.608 223.281V223.555C819.608 223.851 819.649 224.124 819.731 224.375C819.818 224.626 819.939 224.842 820.094 225.024C820.253 225.207 820.445 225.348 820.668 225.448C820.896 225.549 821.153 225.599 821.44 225.599C821.796 225.599 822.126 225.53 822.432 225.394C822.742 225.252 823.008 225.04 823.231 224.758L824.188 225.797C824.034 226.02 823.822 226.234 823.553 226.439C823.288 226.645 822.969 226.813 822.596 226.945C822.222 227.073 821.796 227.137 821.317 227.137ZM830.156 219.604H831.94V226.754C831.94 227.428 831.79 228 831.489 228.47C831.193 228.944 830.778 229.301 830.245 229.543C829.712 229.789 829.092 229.912 828.386 229.912C828.076 229.912 827.748 229.871 827.401 229.789C827.06 229.707 826.731 229.579 826.417 229.406C826.107 229.233 825.847 229.014 825.638 228.75L826.506 227.588C826.734 227.852 826.998 228.057 827.299 228.203C827.6 228.354 827.932 228.429 828.297 228.429C828.652 228.429 828.953 228.363 829.199 228.23C829.445 228.103 829.634 227.914 829.767 227.663C829.899 227.417 829.965 227.118 829.965 226.768V221.312L830.156 219.604ZM825.18 223.391V223.247C825.18 222.682 825.248 222.169 825.385 221.709C825.526 221.244 825.724 220.845 825.979 220.513C826.239 220.18 826.554 219.923 826.923 219.74C827.292 219.558 827.709 219.467 828.174 219.467C828.666 219.467 829.078 219.558 829.411 219.74C829.744 219.923 830.017 220.182 830.231 220.52C830.446 220.852 830.612 221.246 830.73 221.702C830.854 222.153 830.949 222.648 831.018 223.186V223.5C830.949 224.015 830.847 224.493 830.71 224.936C830.573 225.378 830.393 225.765 830.17 226.098C829.947 226.426 829.669 226.681 829.336 226.863C829.008 227.046 828.616 227.137 828.16 227.137C827.704 227.137 827.292 227.043 826.923 226.856C826.558 226.67 826.246 226.408 825.986 226.07C825.727 225.733 825.526 225.337 825.385 224.881C825.248 224.425 825.18 223.928 825.18 223.391ZM827.148 223.247V223.391C827.148 223.696 827.178 223.981 827.237 224.245C827.297 224.509 827.388 224.744 827.511 224.949C827.638 225.15 827.796 225.307 827.982 225.421C828.174 225.53 828.399 225.585 828.659 225.585C829.019 225.585 829.313 225.51 829.541 225.359C829.769 225.204 829.94 224.993 830.054 224.724C830.168 224.455 830.234 224.145 830.252 223.794V222.898C830.243 222.611 830.204 222.354 830.136 222.126C830.067 221.894 829.972 221.695 829.849 221.531C829.726 221.367 829.566 221.24 829.37 221.148C829.174 221.057 828.942 221.012 828.673 221.012C828.413 221.012 828.188 221.071 827.996 221.189C827.809 221.303 827.652 221.461 827.524 221.661C827.401 221.862 827.308 222.099 827.244 222.372C827.18 222.641 827.148 222.933 827.148 223.247ZM835.55 219.604V227H833.574V219.604H835.55ZM833.451 217.676C833.451 217.389 833.551 217.152 833.752 216.965C833.952 216.778 834.221 216.685 834.559 216.685C834.891 216.685 835.158 216.778 835.358 216.965C835.563 217.152 835.666 217.389 835.666 217.676C835.666 217.963 835.563 218.2 835.358 218.387C835.158 218.574 834.891 218.667 834.559 218.667C834.221 218.667 833.952 218.574 833.752 218.387C833.551 218.2 833.451 217.963 833.451 217.676ZM839.104 221.183V227H837.136V219.604H838.981L839.104 221.183ZM838.817 223.042H838.284C838.284 222.495 838.355 222.003 838.496 221.565C838.637 221.123 838.836 220.747 839.091 220.438C839.346 220.123 839.649 219.884 840 219.72C840.355 219.551 840.752 219.467 841.189 219.467C841.536 219.467 841.853 219.517 842.14 219.617C842.427 219.717 842.673 219.877 842.878 220.096C843.088 220.314 843.247 220.604 843.356 220.964C843.47 221.324 843.527 221.764 843.527 222.283V227H841.545V222.276C841.545 221.948 841.499 221.693 841.408 221.511C841.317 221.328 841.183 221.201 841.005 221.128C840.832 221.05 840.618 221.012 840.362 221.012C840.098 221.012 839.868 221.064 839.672 221.169C839.48 221.274 839.321 221.42 839.193 221.606C839.07 221.789 838.977 222.003 838.913 222.249C838.849 222.495 838.817 222.759 838.817 223.042ZM846.952 221.183V227H844.983V219.604H846.829L846.952 221.183ZM846.665 223.042H846.132C846.132 222.495 846.202 222.003 846.344 221.565C846.485 221.123 846.683 220.747 846.938 220.438C847.194 220.123 847.497 219.884 847.848 219.72C848.203 219.551 848.6 219.467 849.037 219.467C849.383 219.467 849.7 219.517 849.987 219.617C850.274 219.717 850.521 219.877 850.726 220.096C850.935 220.314 851.095 220.604 851.204 220.964C851.318 221.324 851.375 221.764 851.375 222.283V227H849.393V222.276C849.393 221.948 849.347 221.693 849.256 221.511C849.165 221.328 849.03 221.201 848.853 221.128C848.679 221.05 848.465 221.012 848.21 221.012C847.946 221.012 847.715 221.064 847.52 221.169C847.328 221.274 847.169 221.42 847.041 221.606C846.918 221.789 846.825 222.003 846.761 222.249C846.697 222.495 846.665 222.759 846.665 223.042ZM856.276 227.137C855.702 227.137 855.187 227.046 854.731 226.863C854.276 226.676 853.888 226.419 853.569 226.091C853.255 225.763 853.013 225.382 852.845 224.949C852.676 224.512 852.592 224.047 852.592 223.555V223.281C852.592 222.721 852.672 222.208 852.831 221.743C852.991 221.278 853.218 220.875 853.515 220.533C853.815 220.191 854.18 219.929 854.608 219.747C855.037 219.56 855.52 219.467 856.058 219.467C856.582 219.467 857.047 219.553 857.452 219.727C857.858 219.9 858.197 220.146 858.471 220.465C858.749 220.784 858.958 221.167 859.1 221.613C859.241 222.055 859.312 222.548 859.312 223.09V223.91H853.433V222.598H857.377V222.447C857.377 222.174 857.327 221.93 857.227 221.716C857.131 221.497 856.985 221.324 856.789 221.196C856.593 221.069 856.342 221.005 856.037 221.005C855.777 221.005 855.554 221.062 855.367 221.176C855.18 221.29 855.028 221.449 854.909 221.654C854.795 221.859 854.709 222.101 854.649 222.379C854.595 222.652 854.567 222.953 854.567 223.281V223.555C854.567 223.851 854.608 224.124 854.69 224.375C854.777 224.626 854.898 224.842 855.053 225.024C855.212 225.207 855.404 225.348 855.627 225.448C855.855 225.549 856.112 225.599 856.399 225.599C856.755 225.599 857.085 225.53 857.391 225.394C857.701 225.252 857.967 225.04 858.19 224.758L859.147 225.797C858.993 226.02 858.781 226.234 858.512 226.439C858.247 226.645 857.928 226.813 857.555 226.945C857.181 227.073 856.755 227.137 856.276 227.137ZM862.401 221.217V227H860.433V219.604H862.285L862.401 221.217ZM864.63 219.556L864.596 221.381C864.5 221.367 864.384 221.356 864.247 221.347C864.115 221.333 863.994 221.326 863.885 221.326C863.607 221.326 863.365 221.363 863.16 221.436C862.96 221.504 862.791 221.606 862.654 221.743C862.522 221.88 862.422 222.046 862.354 222.242C862.29 222.438 862.253 222.661 862.244 222.912L861.848 222.789C861.848 222.311 861.896 221.871 861.991 221.47C862.087 221.064 862.226 220.711 862.408 220.41C862.595 220.109 862.823 219.877 863.092 219.713C863.361 219.549 863.668 219.467 864.015 219.467C864.124 219.467 864.236 219.476 864.35 219.494C864.464 219.508 864.557 219.528 864.63 219.556Z" fill="#1C1B1F"/>
<path d="M291 217.5C291 214.739 293.239 212.5 296 212.5H298.28C299.976 212.5 301.556 211.64 302.478 210.216L305.574 205.431C305.989 204.79 306.94 204.831 307.297 205.506L309.591 209.839C310.458 211.476 312.158 212.5 314.01 212.5H316C318.761 212.5 321 214.739 321 217.5V225.5C321 228.261 318.761 230.5 316 230.5H296C293.239 230.5 291 228.261 291 225.5V217.5Z" fill="white"/>
<path d="M300.122 220.001H300.767C301.082 220.001 301.343 219.949 301.548 219.845C301.756 219.737 301.911 219.592 302.012 219.41C302.116 219.225 302.168 219.016 302.168 218.785C302.168 218.512 302.122 218.282 302.031 218.097C301.94 217.911 301.803 217.771 301.621 217.677C301.439 217.582 301.208 217.535 300.928 217.535C300.674 217.535 300.449 217.586 300.254 217.687C300.062 217.784 299.91 217.924 299.8 218.106C299.692 218.289 299.639 218.504 299.639 218.751H298.735C298.735 218.39 298.826 218.061 299.009 217.765C299.191 217.468 299.447 217.232 299.775 217.057C300.107 216.881 300.492 216.793 300.928 216.793C301.357 216.793 301.733 216.869 302.056 217.022C302.378 217.172 302.629 217.397 302.808 217.696C302.987 217.993 303.076 218.362 303.076 218.805C303.076 218.984 303.034 219.176 302.949 219.381C302.868 219.583 302.739 219.771 302.563 219.947C302.391 220.123 302.166 220.268 301.89 220.382C301.613 220.493 301.281 220.548 300.894 220.548H300.122V220.001ZM300.122 220.743V220.201H300.894C301.346 220.201 301.72 220.255 302.017 220.362C302.313 220.47 302.546 220.613 302.715 220.792C302.887 220.971 303.008 221.168 303.076 221.383C303.148 221.594 303.184 221.806 303.184 222.018C303.184 222.35 303.127 222.644 303.013 222.901C302.902 223.159 302.744 223.377 302.539 223.556C302.337 223.735 302.1 223.87 301.826 223.961C301.553 224.052 301.255 224.098 300.933 224.098C300.623 224.098 300.332 224.054 300.059 223.966C299.788 223.878 299.549 223.751 299.341 223.585C299.132 223.416 298.97 223.209 298.853 222.965C298.735 222.717 298.677 222.436 298.677 222.12H299.58C299.58 222.368 299.634 222.584 299.741 222.77C299.852 222.955 300.008 223.1 300.21 223.204C300.415 223.305 300.656 223.355 300.933 223.355C301.209 223.355 301.447 223.308 301.646 223.214C301.847 223.116 302.002 222.97 302.109 222.774C302.22 222.579 302.275 222.333 302.275 222.037C302.275 221.741 302.214 221.498 302.09 221.31C301.966 221.118 301.79 220.976 301.562 220.885C301.338 220.79 301.073 220.743 300.767 220.743H300.122ZM308.892 219.879V220.963C308.892 221.546 308.84 222.037 308.735 222.438C308.631 222.838 308.481 223.16 308.286 223.404C308.091 223.648 307.855 223.826 307.578 223.937C307.305 224.044 306.995 224.098 306.65 224.098C306.377 224.098 306.125 224.063 305.894 223.995C305.662 223.927 305.454 223.818 305.269 223.668C305.086 223.515 304.93 223.316 304.8 223.072C304.67 222.828 304.57 222.532 304.502 222.184C304.434 221.835 304.399 221.428 304.399 220.963V219.879C304.399 219.296 304.451 218.808 304.556 218.414C304.663 218.02 304.814 217.704 305.01 217.467C305.205 217.226 305.439 217.053 305.713 216.949C305.99 216.845 306.299 216.793 306.641 216.793C306.917 216.793 307.171 216.827 307.402 216.896C307.637 216.961 307.845 217.066 308.027 217.213C308.21 217.356 308.364 217.548 308.491 217.789C308.621 218.027 308.721 218.318 308.789 218.663C308.857 219.008 308.892 219.413 308.892 219.879ZM307.983 221.109V219.728C307.983 219.409 307.964 219.129 307.925 218.888C307.889 218.644 307.835 218.435 307.764 218.263C307.692 218.09 307.601 217.95 307.49 217.843C307.383 217.735 307.257 217.657 307.114 217.608C306.974 217.556 306.816 217.53 306.641 217.53C306.426 217.53 306.235 217.571 306.069 217.652C305.903 217.73 305.763 217.856 305.649 218.028C305.539 218.201 305.454 218.427 305.396 218.707C305.337 218.987 305.308 219.327 305.308 219.728V221.109C305.308 221.428 305.326 221.71 305.361 221.954C305.4 222.198 305.457 222.41 305.532 222.589C305.607 222.765 305.698 222.91 305.806 223.023C305.913 223.137 306.037 223.222 306.177 223.277C306.32 223.329 306.478 223.355 306.65 223.355C306.872 223.355 307.065 223.313 307.231 223.229C307.397 223.144 307.536 223.012 307.646 222.833C307.76 222.651 307.845 222.418 307.9 222.135C307.956 221.848 307.983 221.507 307.983 221.109ZM309.976 218.634V218.258C309.976 217.988 310.034 217.742 310.151 217.521C310.269 217.299 310.436 217.122 310.654 216.988C310.872 216.855 311.131 216.788 311.431 216.788C311.737 216.788 311.997 216.855 312.212 216.988C312.43 217.122 312.598 217.299 312.715 217.521C312.832 217.742 312.891 217.988 312.891 218.258V218.634C312.891 218.897 312.832 219.14 312.715 219.361C312.601 219.583 312.435 219.76 312.217 219.894C312.002 220.027 311.743 220.094 311.44 220.094C311.138 220.094 310.876 220.027 310.654 219.894C310.436 219.76 310.269 219.583 310.151 219.361C310.034 219.14 309.976 218.897 309.976 218.634ZM310.654 218.258V218.634C310.654 218.784 310.682 218.925 310.737 219.059C310.796 219.192 310.884 219.301 311.001 219.386C311.118 219.467 311.265 219.508 311.44 219.508C311.616 219.508 311.761 219.467 311.875 219.386C311.989 219.301 312.074 219.192 312.129 219.059C312.184 218.925 312.212 218.784 312.212 218.634V218.258C312.212 218.105 312.183 217.962 312.124 217.828C312.069 217.691 311.982 217.582 311.865 217.501C311.751 217.416 311.606 217.374 311.431 217.374C311.258 217.374 311.113 217.416 310.996 217.501C310.882 217.582 310.796 217.691 310.737 217.828C310.682 217.962 310.654 218.105 310.654 218.258ZM313.438 222.638V222.257C313.438 221.99 313.496 221.746 313.613 221.524C313.73 221.303 313.898 221.126 314.116 220.992C314.334 220.859 314.593 220.792 314.893 220.792C315.199 220.792 315.459 220.859 315.674 220.992C315.892 221.126 316.06 221.303 316.177 221.524C316.294 221.746 316.353 221.99 316.353 222.257V222.638C316.353 222.905 316.294 223.149 316.177 223.37C316.063 223.591 315.897 223.769 315.679 223.902C315.464 224.036 315.205 224.103 314.902 224.103C314.6 224.103 314.339 224.036 314.121 223.902C313.903 223.769 313.734 223.591 313.613 223.37C313.496 223.149 313.438 222.905 313.438 222.638ZM314.116 222.257V222.638C314.116 222.787 314.144 222.931 314.199 223.067C314.258 223.201 314.346 223.31 314.463 223.395C314.58 223.476 314.727 223.517 314.902 223.517C315.078 223.517 315.223 223.476 315.337 223.395C315.454 223.31 315.54 223.201 315.596 223.067C315.651 222.934 315.679 222.791 315.679 222.638V222.257C315.679 222.104 315.649 221.961 315.591 221.827C315.535 221.694 315.449 221.586 315.332 221.505C315.218 221.42 315.072 221.378 314.893 221.378C314.72 221.378 314.575 221.42 314.458 221.505C314.344 221.586 314.258 221.694 314.199 221.827C314.144 221.961 314.116 222.104 314.116 222.257ZM315.117 217.901L311.646 223.458L311.138 223.136L314.609 217.579L315.117 217.901Z" fill="black"/>
<path d="M811.086 148.468H822.901C825.075 148.468 826.597 148.262 826.597 150.453V146.483C826.597 144.292 825.075 142.513 822.901 142.513H807.148C803.21 142.513 800.093 146.731 801.241 152.438C801.241 152.438 804.768 171.046 805.016 172.203C805.671 175.264 809.198 178.242 812.973 178.242H826.674C828.85 178.242 826.597 174.478 826.597 172.287V168.317C826.597 170.508 825.075 172.287 822.901 172.287H815.025C812.851 172.287 811.415 170.219 811.086 168.317C810.758 166.415 807.967 153.762 807.967 153.762C807.312 149.957 808.911 148.468 811.086 148.468ZM861.913 148.468H850.098C847.924 148.468 844.319 148.262 844.319 150.453V146.483C844.319 144.292 847.924 142.513 850.098 142.513H865.851C869.789 142.513 872.908 146.731 871.758 152.438C871.758 152.438 868.543 171.134 868.271 172.287C867.574 175.264 864.25 178.242 860.395 178.242H846.324C844.15 178.242 844.319 174.478 844.319 172.287V168.317C844.319 170.508 847.924 172.287 850.098 172.287H857.975C860.149 172.287 861.586 170.219 861.913 168.317C862.24 166.415 865.032 153.762 865.032 153.762C865.686 149.957 864.089 148.468 861.913 148.468ZM842.019 182.211C842.019 168.4 836.685 182.211 836.685 182.211C836.685 182.211 830.777 168.4 830.777 182.211C830.777 196.022 824.297 202.06 824.297 202.06H848.501C848.501 202.06 842.019 196.022 842.019 182.211Z" fill="#82ACF5"/>
<path d="M854.165 204.045C854.165 206.237 854.612 208.015 852.438 208.015H820.932C818.756 208.015 818.721 206.237 818.721 204.045V202.06C818.721 199.869 821.013 198.091 823.064 198.091H850.469C852.52 198.091 854.165 199.869 854.165 202.06V204.045Z" fill="#828282"/>
<path d="M858.103 207.271C858.103 208.779 858.428 210 855.637 210H817.732C815.188 210 814.782 208.779 814.782 207.271V206.775C814.782 205.266 816.236 204.045 817.732 204.045H855.637C857.132 204.045 858.103 205.266 858.103 206.775V207.271Z" fill="#828282"/>
<path fill-rule="evenodd" clip-rule="evenodd" d="M836.685 187.708C845.014 187.708 858.345 165.046 858.345 151.598C858.345 140.358 856.212 138.998 850.469 139L836.685 139.002C834.564 139.002 830.878 139.018 827.524 139.032C824.727 139.044 822.162 139.056 820.932 139.056C816.994 139.056 815.025 141.287 815.025 151.598C815.025 165.046 828.354 187.708 836.685 187.708ZM835.833 151.598L832.777 155.016L830.777 156.864H833.999L835.833 155.016V168.568H838.888V151.598H835.833Z" fill="#2D9CDB"/>
<path d="M245.75 99.5961C245.75 99.5961 246.794 96.4594 249.256 94.4914C249.729 94.1139 250.621 93.7354 251.756 93.3702C260.446 90.5729 270.242 92.7838 276.97 98.9546C278.027 99.9235 278.881 100.837 279.361 101.604C280.947 104.139 283.361 112.427 281.68 116.951C277.676 127.728 267.286 126.482 264.579 125.867C263.307 125.579 260.209 124.759 260.209 124.759C260.209 124.759 253.132 130.602 244.616 126.121C238.132 122.709 238.935 117.609 238.935 117.609C238.935 117.609 234.57 113.243 236.46 107.163C238.738 99.8411 245.75 99.5961 245.75 99.5961Z" fill="#BA68C8"/>
<path d="M248.771 119.495C248.771 119.495 250.189 119.413 250.773 119.246C251.357 119.078 252.148 118.58 252.148 118.58C252.148 118.58 257.627 124.312 258.194 124.793C258.748 125.261 259.401 118.12 259.401 118.12C259.401 118.12 260.652 118.313 261.82 118.129C263.359 117.884 264.407 117.394 264.407 117.394C264.407 117.394 263.659 121.79 263.367 123.457C263.182 124.527 263.118 127.5 263.118 127.5L259.113 130.834L256.067 128.789C256.067 128.789 256.058 127.986 255.607 127.44C254.206 125.747 248.771 119.495 248.771 119.495ZM262.74 129.296L265.786 125.627C265.786 125.627 266.869 125.708 267.664 125.708C268.455 125.708 269.834 125.541 269.834 125.541C269.834 125.541 267.333 128.918 265.997 130.585C264.661 132.252 262.912 134.341 262.912 134.341L261.245 129.502L262.74 129.296Z" fill="#6D4B41"/>
<path d="M260.574 126.374C259.328 126.486 256.071 128.793 256.071 128.793C256.071 128.793 256.239 132.712 256.114 134.925C255.989 137.138 255.117 140.752 255.921 141.667C256.617 142.457 262.469 142.608 263.341 141.688C264.218 140.769 263.367 136.97 263.367 134.508C263.367 132.046 263.118 127.5 263.118 127.5C263.118 127.5 261.992 126.25 260.574 126.374Z" fill="#865B50"/>
<path d="M569.75 96.5961C569.75 96.5961 570.794 93.4594 573.256 91.4914C573.729 91.1139 574.621 90.7354 575.756 90.3702C584.446 87.5729 594.242 89.7838 600.97 95.9546C602.027 96.9235 602.881 97.8372 603.361 98.6042C604.947 101.139 607.361 109.427 605.68 113.951C601.676 124.728 591.286 123.482 588.579 122.867C587.307 122.579 584.209 121.759 584.209 121.759C584.209 121.759 577.132 127.602 568.616 123.121C562.132 119.709 562.935 114.609 562.935 114.609C562.935 114.609 558.57 110.243 560.46 104.163C562.738 96.8411 569.75 96.5961 569.75 96.5961Z" fill="#BA68C8"/>
<path d="M572.771 116.495C572.771 116.495 574.189 116.413 574.773 116.246C575.357 116.078 576.148 115.58 576.148 115.58C576.148 115.58 581.627 121.312 582.194 121.793C582.748 122.261 583.401 115.12 583.401 115.12C583.401 115.12 584.652 115.313 585.82 115.129C587.359 114.884 588.407 114.394 588.407 114.394C588.407 114.394 587.659 118.79 587.367 120.457C587.182 121.527 587.118 124.5 587.118 124.5L583.113 127.834L580.067 125.789C580.067 125.789 580.058 124.986 579.607 124.44C578.206 122.747 572.771 116.495 572.771 116.495ZM586.74 126.296L589.786 122.627C589.786 122.627 590.869 122.708 591.664 122.708C592.455 122.708 593.834 122.541 593.834 122.541C593.834 122.541 591.333 125.918 589.997 127.585C588.661 129.252 586.912 131.341 586.912 131.341L585.245 126.502L586.74 126.296Z" fill="#6D4B41"/>
<path d="M584.574 123.374C583.328 123.486 580.071 125.793 580.071 125.793C580.071 125.793 580.239 129.712 580.114 131.925C579.989 134.138 579.117 137.752 579.921 138.667C580.617 139.457 586.469 139.608 587.341 138.688C588.218 137.769 587.367 133.97 587.367 131.508C587.367 129.046 587.118 124.5 587.118 124.5C587.118 124.5 585.992 123.25 584.574 123.374Z" fill="#865B50"/>
<path d="M613.75 80.5961C613.75 80.5961 614.794 77.4594 617.256 75.4914C617.729 75.1139 618.621 74.7354 619.756 74.3702C628.446 71.5729 638.242 73.7838 644.97 79.9546C646.027 80.9235 646.881 81.8372 647.361 82.6042C648.947 85.1394 651.361 93.4266 649.68 97.9512C645.676 108.728 635.286 107.482 632.579 106.867C631.307 106.579 628.209 105.759 628.209 105.759C628.209 105.759 621.132 111.602 612.616 107.121C606.132 103.709 606.935 98.6086 606.935 98.6086C606.935 98.6086 602.57 94.243 604.46 88.1629C606.738 80.8411 613.75 80.5961 613.75 80.5961Z" fill="#BA68C8"/>
<path d="M616.771 100.495C616.771 100.495 618.189 100.413 618.773 100.246C619.357 100.078 620.148 99.5797 620.148 99.5797C620.148 99.5797 625.627 105.312 626.194 105.793C626.748 106.261 627.401 99.12 627.401 99.12C627.401 99.12 628.652 99.3133 629.82 99.1286C631.359 98.8836 632.407 98.3938 632.407 98.3938C632.407 98.3938 631.659 102.79 631.367 104.457C631.182 105.527 631.118 108.5 631.118 108.5L627.113 111.834L624.067 109.789C624.067 109.789 624.058 108.986 623.607 108.44C622.206 106.747 616.771 100.495 616.771 100.495ZM630.74 110.296L633.786 106.627C633.786 106.627 634.869 106.708 635.664 106.708C636.455 106.708 637.834 106.541 637.834 106.541C637.834 106.541 635.333 109.918 633.997 111.585C632.661 113.252 630.912 115.341 630.912 115.341L629.245 110.502L630.74 110.296Z" fill="#6D4B41"/>
<path d="M628.574 107.374C627.328 107.486 624.071 109.793 624.071 109.793C624.071 109.793 624.239 113.712 624.114 115.925C623.989 118.138 623.117 121.752 623.921 122.667C624.617 123.457 630.469 123.608 631.341 122.688C632.218 121.769 631.367 117.97 631.367 115.508C631.367 113.046 631.118 108.5 631.118 108.5C631.118 108.5 629.992 107.25 628.574 107.374Z" fill="#865B50"/>
<path d="M384.119 32.0551H384.115C384.115 32.0288 384.119 32.0026 384.119 31.9763C384.119 28.3951 381.216 25.4888 377.631 25.4888C377.17 25.4888 376.72 25.5376 376.289 25.6313C375.003 22.5038 371.931 20.2988 368.339 20.2988C365.643 20.2988 363.239 21.5438 361.664 23.4863C360.618 22.9546 359.462 22.6771 358.289 22.6763C354.408 22.6763 351.22 25.6313 350.849 29.4151C346.63 29.6401 343.244 33.0976 343.188 37.3913C343.128 41.8613 346.709 45.5363 351.179 45.5926C351.528 45.5963 351.865 45.5738 352.203 45.5326C353.931 49.1776 357.64 51.6976 361.941 51.6976C364.536 51.6976 366.914 50.7788 368.774 49.2526C370.195 50.3063 371.95 50.9363 373.855 50.9363C377.763 50.9363 381.051 48.3151 382.075 44.7338C382.72 44.9476 383.406 45.0676 384.123 45.0676C387.715 45.0676 390.629 42.1538 390.629 38.5613C390.625 34.9688 387.715 32.0551 384.119 32.0551Z" fill="#E3EBEE"/>
<path d="M387.944 33.2961C389.418 34.7849 388.375 38.1974 387.363 39.3111C385.368 41.4974 381.708 40.9874 380.238 40.6724C379.84 40.5861 379.776 40.6161 379.645 40.6949C379.529 40.7661 379.476 40.8786 379.349 41.1449C378.876 42.1649 377.654 44.1411 375.074 44.9361C372.385 45.7649 369.85 44.5011 368.665 43.7474C368.215 43.4624 368.196 43.4549 367.994 43.4586C367.788 43.4624 367.585 43.6124 367.341 43.8036C366.269 44.6474 363.82 46.1361 360.044 45.9186C356.343 45.7049 354.224 43.4249 353.496 42.2511C353.358 42.0261 353.208 41.8386 353.035 41.8199C352.836 41.8011 352.615 42.0036 352.45 42.1686C350.875 43.7024 345.918 44.1636 344.275 41.5499C345.948 44.2311 348.531 45.5586 351.183 45.5924C351.531 45.5961 351.869 45.5736 352.206 45.5324C353.935 49.1774 357.644 51.6974 361.945 51.6974C364.54 51.6974 366.918 50.7786 368.778 49.2524C370.199 50.3061 371.954 50.9361 373.859 50.9361C377.766 50.9361 381.055 48.3149 382.079 44.7336C382.724 44.9474 383.41 45.0674 384.126 45.0674C387.719 45.0674 390.633 42.1536 390.633 38.5611C390.625 36.6486 389.665 34.4886 387.944 33.2961Z" fill="#B9CDD2"/>
<path d="M612.126 57.2055H612.123C612.123 57.1869 612.126 57.1683 612.126 57.1497C612.126 54.613 610.07 52.5544 607.531 52.5544C607.204 52.5544 606.885 52.589 606.58 52.6554C605.668 50.44 603.493 48.8782 600.948 48.8782C599.038 48.8782 597.336 49.76 596.22 51.136C595.48 50.7593 594.66 50.5628 593.83 50.5622C591.08 50.5622 588.823 52.6554 588.56 55.3355C585.571 55.4949 583.173 57.944 583.133 60.9854C583.09 64.1516 585.627 66.7547 588.793 66.7946C589.04 66.7972 589.279 66.7813 589.518 66.7521C590.743 69.334 593.37 71.119 596.417 71.119C598.255 71.119 599.939 70.4682 601.256 69.3871C602.263 70.1335 603.506 70.5797 604.856 70.5797C607.623 70.5797 609.953 68.723 610.678 66.1863C611.135 66.3377 611.621 66.4227 612.128 66.4227C614.673 66.4227 616.737 64.3588 616.737 61.8141C616.734 59.2694 614.673 57.2055 612.126 57.2055Z" fill="#E3EBEE"/>
<path d="M614.835 58.085C615.879 59.1395 615.141 61.5567 614.423 62.3456C613.01 63.8942 610.418 63.5329 609.377 63.3098C609.095 63.2487 609.05 63.27 608.957 63.3257C608.874 63.3762 608.837 63.4559 608.747 63.6445C608.412 64.367 607.546 65.7668 605.719 66.33C603.814 66.917 602.019 66.0218 601.179 65.4879C600.861 65.2861 600.847 65.2807 600.704 65.2834C600.558 65.2861 600.414 65.3923 600.242 65.5278C599.482 66.1254 597.747 67.18 595.073 67.0259C592.451 66.8745 590.95 65.2595 590.435 64.4281C590.337 64.2687 590.23 64.1359 590.108 64.1226C589.967 64.1093 589.811 64.2528 589.694 64.3696C588.578 65.4561 585.067 65.7828 583.903 63.9314C585.088 65.8306 586.918 66.7709 588.796 66.7948C589.043 66.7975 589.282 66.7815 589.521 66.7523C590.746 69.3342 593.373 71.1192 596.419 71.1192C598.257 71.1192 599.942 70.4684 601.259 69.3873C602.266 70.1337 603.509 70.58 604.858 70.58C607.626 70.58 609.956 68.7232 610.681 66.1865C611.138 66.3379 611.624 66.4229 612.131 66.4229C614.676 66.4229 616.74 64.359 616.74 61.8143C616.734 60.4596 616.054 58.9296 614.835 58.085Z" fill="#B9CDD2"/>
<path d="M385 78.8712C385 78.8712 386.367 74.765 389.59 72.1887C390.722 71.2841 393.699 70.375 397.085 69.5761C405.971 67.48 415.383 69.5214 422.529 75.2028C425.372 77.4633 427.915 79.7674 429 81.5C431.076 84.8188 434.236 95.6675 432.036 101.591C426.794 115.698 413.193 114.067 409.649 113.262C407.984 112.886 403.928 111.811 403.928 111.811C403.928 111.811 394.664 119.461 383.515 113.594C375.027 109.128 376.079 102.451 376.079 102.451C376.079 102.451 370.364 96.7362 372.839 88.7768C375.82 79.1918 385 78.8712 385 78.8712Z" fill="#BA68C8"/>
<path d="M388.954 104.921C388.954 104.921 390.811 104.814 391.576 104.594C392.341 104.375 393.376 103.722 393.376 103.722C393.376 103.722 400.547 111.226 401.29 111.856C402.016 112.469 402.871 103.121 402.871 103.121C402.871 103.121 404.507 103.374 406.037 103.132C408.051 102.811 409.424 102.17 409.424 102.17C409.424 102.17 408.445 107.924 408.062 110.107C407.821 111.507 407.736 115.4 407.736 115.4L402.494 119.765L398.506 117.087C398.506 117.087 398.494 116.036 397.904 115.321C396.07 113.105 388.954 104.921 388.954 104.921ZM407.241 117.751L411.229 112.947C411.229 112.947 412.647 113.054 413.687 113.054C414.722 113.054 416.528 112.835 416.528 112.835C416.528 112.835 413.254 117.256 411.505 119.439C409.756 121.621 407.466 124.355 407.466 124.355L405.284 118.021L407.241 117.751Z" fill="#6D4B41"/>
<path d="M404.406 113.926C402.775 114.072 398.511 117.093 398.511 117.093C398.511 117.093 398.731 122.223 398.567 125.12C398.404 128.017 397.262 132.747 398.314 133.946C399.226 134.981 406.887 135.177 408.029 133.974C409.176 132.77 408.062 127.797 408.062 124.574C408.062 121.351 407.736 115.4 407.736 115.4C407.736 115.4 406.262 113.763 404.406 113.926Z" fill="#865B50"/>
<defs>
<clipPath id="clip0_200_10630">
<rect width="50.7726" height="56" fill="white" transform="translate(279.373 134)"/>
</clipPath>
</defs>
</svg>
