<svg width="24" height="24" viewBox="0 0 24 24" fill="none" xmlns="http://www.w3.org/2000/svg">
<g id="Icons-drawer">
<mask id="mask0_212_404" style="mask-type:alpha" maskUnits="userSpaceOnUse" x="0" y="0" width="24" height="24">
<rect id="Bounding box" width="24" height="24" fill="#1C1B1F"/>
</mask>
<g mask="url(#mask0_212_404)">
<path id="emoji_objects" d="M12.2143 20.5714C11.8429 20.5714 11.5071 20.4823 11.2071 20.304C10.9071 20.1252 10.6714 19.8857 10.5 19.5857C10.0286 19.5857 9.62514 19.418 9.28971 19.0826C8.95371 18.7466 8.78571 18.3429 8.78571 17.8714V14.8286C7.94286 14.2714 7.268 13.5357 6.76114 12.6214C6.25371 11.7072 6 10.7143 6 9.64287C6 7.9143 6.60343 6.4463 7.81029 5.23887C9.01771 4.03202 10.4857 3.42859 12.2143 3.42859C13.9429 3.42859 15.4106 4.03202 16.6174 5.23887C17.8249 6.4463 18.4286 7.9143 18.4286 9.64287C18.4286 10.7429 18.1751 11.7429 17.6683 12.6429C17.1609 13.5429 16.4857 14.2714 15.6429 14.8286V17.8714C15.6429 18.3429 15.4751 18.7466 15.1397 19.0826C14.8037 19.418 14.4 19.5857 13.9286 19.5857C13.7571 19.8857 13.5214 20.1252 13.2214 20.304C12.9214 20.4823 12.5857 20.5714 12.2143 20.5714ZM10.5 17.8714H13.9286V17.1H10.5V17.8714ZM10.5 16.2429H13.9286V15.4286H10.5V16.2429ZM10.3286 13.7143H11.5714V11.4L9.68571 9.5143L10.5857 8.6143L12.2143 10.2429L13.8429 8.6143L14.7429 9.5143L12.8571 11.4V13.7143H14.1C14.8714 13.3429 15.5 12.7963 15.9857 12.0746C16.4714 11.3534 16.7143 10.5429 16.7143 9.64287C16.7143 8.38573 16.2786 7.32145 15.4071 6.45002C14.5357 5.57859 13.4714 5.14287 12.2143 5.14287C10.9571 5.14287 9.89286 5.57859 9.02143 6.45002C8.15 7.32145 7.71429 8.38573 7.71429 9.64287C7.71429 10.5429 7.95714 11.3534 8.44286 12.0746C8.92857 12.7963 9.55714 13.3429 10.3286 13.7143Z" fill="#F2C94C"/>
</g>
</g>
</svg>
