<svg width="70" height="98" viewBox="0 0 70 98" fill="none" xmlns="http://www.w3.org/2000/svg">
<path fill-rule="evenodd" clip-rule="evenodd" d="M46.2232 14.7721C47.5582 13.2235 48.4618 11.3257 48.3108 9.19916C47.8757 3.07198 39.2449 4.41988 37.566 7.51236C35.8871 10.6048 36.0866 18.4492 38.2564 19.0019C39.1217 19.2223 40.9651 18.6823 42.8412 17.5648L41.6636 25.7979H48.6169L46.2232 14.7721Z" fill="#B28B67"/>
<path fill-rule="evenodd" clip-rule="evenodd" d="M51.3422 7.15947C51.5668 6.93953 51.6893 6.62561 51.7953 6.32752C51.9053 6.01787 52.0123 5.70502 52.0853 5.38272C52.2313 4.73874 52.2327 3.99816 51.7679 3.49811C51.395 3.09712 50.8356 2.91727 50.3193 2.87818C49.9754 2.85211 49.6221 2.89972 49.2923 3.00684C48.9652 3.1131 48.6832 3.3249 48.3661 3.45635C48.3539 2.76237 48.2337 2.03623 47.8774 1.44368C47.5346 0.873543 46.988 0.553606 46.3655 0.468963C45.7266 0.382099 45.0957 0.529846 44.5237 0.83551C44.3805 0.912061 44.2387 0.992259 44.1029 1.08303C43.9892 1.15904 43.871 1.25057 43.7376 1.28148C43.589 1.31599 43.5152 1.23112 43.4186 1.12391C43.3053 0.998213 43.1776 0.887503 43.0426 0.789356C42.4452 0.355461 41.6615 0.17706 40.9695 0.437141C40.6506 0.556968 40.3406 0.760468 40.1242 1.04089C39.9314 1.29086 39.7939 1.68737 39.5277 1.86153C39.4148 1.93546 39.335 1.83751 39.2322 1.76512C39.0778 1.65635 38.9305 1.53632 38.7741 1.43051C38.5546 1.28186 38.3168 1.17066 38.0622 1.11246C37.6896 1.02724 37.1745 1.04722 37.068 1.5296C37.028 1.71079 37.0586 1.90458 37.0716 2.08714C37.0893 2.33782 37.1078 2.58841 37.1298 2.83872C37.1465 3.02877 37.1677 3.21233 37.204 3.39897C37.2233 3.49845 37.2839 3.68392 37.2408 3.78355C37.1868 3.90808 36.9378 3.83728 36.8315 3.84161C36.6213 3.85018 36.4104 3.8866 36.2161 3.97531C36.0655 4.04409 35.9072 4.14522 35.8437 4.31576C35.8046 4.42052 35.8149 4.52812 35.8334 4.6359C35.8555 4.76524 35.8302 4.83384 35.8137 4.96435C35.5315 4.82703 34.5536 4.52194 34.4306 5.0217C34.3896 5.18811 34.4829 5.37614 34.5541 5.51648C34.6789 5.76263 34.8426 5.98761 35.0099 6.20217C35.3588 6.64977 35.7755 7.03583 36.2237 7.36599C35.6985 7.59673 35.5615 8.27731 36.0162 8.68281C36.2169 8.86183 36.4869 8.90169 36.7401 8.89024C36.8328 8.88605 36.9665 8.85084 37.0394 8.86679C37.0787 8.87537 37.1207 8.90824 37.1751 8.91192C37.5325 8.93611 37.9359 8.85101 38.2853 8.77263C38.9079 8.63298 39.4973 8.3415 39.9786 7.89758C40.102 7.7837 40.204 7.71815 40.3702 7.71983C40.5158 7.72128 40.6587 7.76074 40.8042 7.76439C41.1892 7.7741 41.5363 7.58812 41.8937 7.46434C41.9156 7.94157 42.0531 8.46717 42.2507 8.89651C42.4118 9.24661 42.7482 9.29749 43.0787 9.32821C44.1358 9.4265 45.1966 9.31681 46.255 9.31826C45.2304 9.54712 44.1717 9.64145 43.1563 9.91076C42.6972 10.0325 43.0478 10.3382 43.244 10.5501C43.5672 10.8991 43.8075 11.3315 43.9741 11.7871C44.4753 11.1415 45.3612 10.716 46.1461 10.9144C47.0133 11.1335 47.6239 12.2924 47.0694 13.1256C46.7474 13.6093 46.1661 13.796 45.6823 14.0038C46.0597 14.3915 46.151 14.9642 46.3781 15.4466C46.4901 15.6845 46.6474 15.9534 46.8979 16.0363C46.9906 16.067 47.0993 16.0697 47.1724 16.1443C47.263 16.2368 47.2846 16.3401 47.4003 16.4196C47.8619 16.7367 48.5829 16.7123 48.9921 16.2984C49.3621 15.9241 49.2658 15.3318 48.9568 14.9524C49.4487 14.7497 50.3448 14.4891 50.1493 13.7318C51.2152 13.6619 53.8031 11.9536 52.3725 10.7053C53.1576 10.2668 53.8789 9.19522 53.3746 8.25059C52.9863 7.5232 52.0832 7.19805 51.3422 7.15947Z" fill="#CBAC4F"/>
<path fill-rule="evenodd" clip-rule="evenodd" d="M61.1843 61.5867H38.802L35.8692 97.0892H69.1872L61.1843 61.5867Z" fill="#C5CFD6"/>
<path fill-rule="evenodd" clip-rule="evenodd" d="M61.1843 61.5867H54.3004L50.1803 97.0892H69.1872L61.1843 61.5867Z" fill="black" fill-opacity="0.1"/>
<path fill-rule="evenodd" clip-rule="evenodd" d="M13.2844 55.5043C10.898 54.0882 6.89424 55.9076 6.89699 57.9329C6.90522 63.9925 12.5012 92.5514 12.7933 94.3568C13.0855 96.1622 16.2154 96.639 16.3977 94.3627C16.6877 90.7407 17.2265 78.2021 16.6874 72.3985C16.4649 70.0029 16.2252 67.7214 15.9893 65.6859C18.9257 70.9263 23.467 78.4291 29.6132 88.1946L32.9498 86.6881C30.3296 78.1572 28.1812 72.1346 26.5044 68.6203C23.6333 62.603 20.9412 57.4499 19.8081 55.6348C18.0259 52.7797 14.9236 53.7759 13.2844 55.5043Z" fill="#B28B67"/>
<path fill-rule="evenodd" clip-rule="evenodd" d="M32.7112 81.9505L21.2592 55.1409C18.5158 50.7797 10.8238 56.0284 11.7594 58.5579C13.8835 64.3006 24.686 82.8921 25.3188 84.6031L32.7112 81.9505Z" fill="#1F28CF"/>
<path fill-rule="evenodd" clip-rule="evenodd" d="M33.3373 85.0022C34.0524 85.5856 34.518 86.0618 34.7338 86.4308C34.9963 86.8796 35.3041 87.5773 35.6571 88.5241C35.1328 88.8229 30.4204 91.5082 21.5199 96.5801C20.4471 95.5836 20.2784 94.8117 21.0137 94.2646C21.7489 93.7174 22.3557 93.2559 22.8339 92.8801L27.7034 86.2273C27.7971 86.0993 27.9783 86.0713 28.1081 86.1647C28.1103 86.1663 28.1125 86.1679 28.1147 86.1696L29.1321 86.9461C30.0634 86.868 30.7581 86.6984 31.2162 86.4374C31.5885 86.2253 32.0152 85.7831 32.4964 85.1109L32.4964 85.1109C32.6811 84.8529 33.0428 84.7931 33.3043 84.9772C33.3156 84.9852 33.3266 84.9935 33.3373 85.0022Z" fill="#E4E4E4"/>
<path fill-rule="evenodd" clip-rule="evenodd" d="M17.1305 92.9095C17.4546 93.7646 17.6167 94.4044 17.6167 94.8289C17.6167 95.3452 17.5297 96.0986 17.3556 97.0891C16.7495 97.0891 11.3026 97.0891 1.01475 97.0891C0.590115 95.7018 0.835241 94.9528 1.75013 94.8422C2.66503 94.7316 3.42505 94.6317 4.03019 94.5426L11.6253 91.1965C11.7714 91.1321 11.9427 91.197 12.0078 91.3414C12.009 91.3439 12.01 91.3464 12.0111 91.3489L12.4993 92.5192C13.3462 92.9097 14.0345 93.105 14.564 93.105C14.9942 93.105 15.5884 92.9333 16.3464 92.5899L16.3464 92.5899C16.6373 92.4581 16.9813 92.5843 17.1146 92.8718C17.1204 92.8842 17.1257 92.8968 17.1305 92.9095Z" fill="#E4E4E4"/>
<path fill-rule="evenodd" clip-rule="evenodd" d="M6.09436 59.9927C6.09436 67.5991 9.74971 85.3418 9.75202 87.0167L17.6167 87.0227C16.4656 71.191 16.0574 63.1899 16.3921 63.0193C16.8943 62.7635 36.9771 65.0008 43.0003 65.0008C51.6857 65.0008 55.2787 59.5882 55.5703 49.5615H38.3647C34.8615 49.932 16.5885 53.5742 9.8023 54.8263C6.89699 55.3624 6.09436 57.8973 6.09436 59.9927Z" fill="#2B44FF"/>
<path fill-rule="evenodd" clip-rule="evenodd" d="M35.6843 31.7245L25.6281 26.2817C23.9558 24.3192 22.3082 22.7951 20.6851 21.7093C20.1892 21.5047 19.3219 21.3808 20.133 22.8035C20.9441 24.2261 21.7324 25.7586 21.3192 26.1969C20.906 26.6351 19.8756 26.0229 19.3827 26.7511C19.054 27.2366 20.8144 28.0035 24.6637 29.0518L31.9707 35.6634L35.6843 31.7245ZM19.9345 36.3169L15.5172 33.9188C14.8974 31.5882 14.1565 30.4155 13.2945 30.4009C12.6323 30.0964 13.7855 33.0414 12.5302 32.7861C11.2749 32.5307 8.21107 30.2788 7.68315 30.736C6.90213 31.4124 7.59854 33.4894 8.41906 34.5226C9.95263 36.4536 11.2224 37.114 14.3607 37.9787C16.0016 38.4309 17.7756 39.3371 19.6829 40.6975L19.9345 36.3169Z" fill="#997659"/>
<path fill-rule="evenodd" clip-rule="evenodd" d="M40.5818 30.5121C37.0594 30.4753 32.3624 29.7402 27.3506 26.5964L25.3824 30.9339C28.8394 34.3243 33.7003 37.1099 37.9505 36.992C41.2999 36.899 43.0118 32.8953 40.5818 30.5121Z" fill="#2026A2"/>
<path fill-rule="evenodd" clip-rule="evenodd" d="M35.8389 37.4682C32.0996 38.3898 25.8289 37.303 17.0268 34.2078C14.8436 38.6714 13.8343 41.8536 13.999 43.7544C21.5499 47.6522 28.0216 49.3901 33.3534 49.5048C33.184 52.6313 33.5691 55.6062 34.8627 58.3244C37.5221 63.9127 53.0945 58.7374 58.3305 59.756C61.6094 49.2328 55.2695 44.9561 55.2644 38.2228C55.2588 30.849 49.2675 19.499 48.386 19.499H40.3472C39.9036 25.1305 37.6711 31.3368 35.8389 37.4682Z" fill="#1F28CF"/>
</svg>
