<svg width="212" height="169" viewBox="0 0 212 169" fill="none" xmlns="http://www.w3.org/2000/svg">
<path d="M190.5 84.5C190.5 131.168 152.668 169 106 169C59.3319 169 21.5 131.168 21.5 84.5C21.5 37.8319 59.3319 0 106 0C152.668 0 190.5 37.8319 190.5 84.5ZM28.6751 84.5C28.6751 127.205 63.2946 161.825 106 161.825C148.705 161.825 183.325 127.205 183.325 84.5C183.325 41.7946 148.705 7.17506 106 7.17506C63.2946 7.17506 28.6751 41.7946 28.6751 84.5Z" fill="#F2F2F2"/>
<path d="M106 3.58753C106 1.60619 107.607 -0.00795229 109.587 0.076113C127.033 0.817018 143.856 6.94881 157.713 17.6714C172.517 29.1272 183.098 45.1745 187.796 63.2945C192.494 81.4146 191.041 100.582 183.667 117.787C176.293 134.992 163.415 149.262 147.054 158.357C130.692 167.451 111.774 170.856 93.269 168.035C74.7636 165.215 57.7186 156.33 44.8091 142.775C31.8997 129.219 23.8568 111.761 21.9429 93.1399C20.1514 75.7106 23.8244 58.1863 32.4055 42.9777C33.3791 41.2521 35.5984 40.7393 37.2811 41.7853C38.9639 42.8313 39.4721 45.0397 38.5053 46.7692C30.7596 60.6245 27.4514 76.5583 29.0803 92.4062C30.8318 109.446 38.1917 125.422 50.005 137.826C61.8182 150.231 77.416 158.362 94.35 160.942C111.284 163.523 128.596 160.408 143.568 152.086C158.54 143.763 170.325 130.705 177.073 114.961C183.82 99.216 185.149 81.6766 180.851 65.0951C176.552 48.5137 166.869 33.829 153.322 23.346C140.722 13.5962 125.443 7.99423 109.587 7.25824C107.607 7.16637 106 5.56887 106 3.58753Z" fill="#2D9CDB"/>
<path d="M106.88 12.0158C106.88 10.2409 108.32 8.79471 110.093 8.87182C121.287 9.35857 132.244 12.3837 142.149 17.7403C153 23.6085 162.253 32.0938 169.089 42.4444C175.924 52.795 180.132 64.6916 181.338 77.0802C182.544 89.4689 180.711 101.967 176.003 113.468C171.294 124.969 163.855 135.118 154.344 143.015C144.833 150.913 133.544 156.315 121.476 158.743C109.409 161.172 96.9358 160.552 85.1617 156.938C74.3906 153.632 64.5087 147.915 56.2425 140.225C54.9612 139.033 54.9657 137.025 56.1959 135.781C57.4466 134.515 59.4851 134.521 60.7938 135.726C68.3067 142.645 77.2584 147.796 87.0059 150.787C97.7802 154.094 109.194 154.662 120.237 152.439C131.28 150.217 141.61 145.273 150.314 138.047C159.017 130.82 165.825 121.533 170.133 111.009C174.442 100.484 176.119 89.047 175.015 77.7103C173.912 66.3735 170.062 55.4872 163.807 46.0154C157.551 36.5437 149.084 28.7789 139.154 23.409C130.171 18.5507 120.241 15.7883 110.093 15.306C108.32 15.2217 106.88 13.7908 106.88 12.0158Z" fill="#06455E"/>
<path d="M94.124 89.08V92.212H91.064V97H87.716V92.212H74.864V89.08L83.9 71.8H87.5L78.464 89.08H87.716V81.952H91.064V89.08H94.124ZM104.603 81.628C106.979 81.628 108.983 82.336 110.615 83.752C112.271 85.144 113.099 87.076 113.099 89.548C113.099 91.996 112.259 93.928 110.579 95.344C108.899 96.76 106.859 97.468 104.459 97.468C102.539 97.468 100.823 97.012 99.3108 96.1C97.7988 95.164 96.7428 93.82 96.1428 92.068L98.9868 90.448C99.3228 91.672 99.9708 92.608 100.931 93.256C101.891 93.88 103.067 94.192 104.459 94.192C106.043 94.192 107.327 93.784 108.311 92.968C109.295 92.152 109.787 91.012 109.787 89.548C109.787 88.084 109.295 86.944 108.311 86.128C107.327 85.288 106.067 84.868 104.531 84.868H97.4028L98.3388 71.8H112.127V74.932H101.363L100.931 81.628H104.603ZM121.395 82.492C119.763 82.492 118.407 81.952 117.327 80.872C116.247 79.792 115.707 78.472 115.707 76.912C115.707 75.376 116.247 74.068 117.327 72.988C118.431 71.884 119.787 71.332 121.395 71.332C123.027 71.332 124.383 71.872 125.463 72.952C126.543 74.032 127.083 75.352 127.083 76.912C127.083 78.472 126.543 79.792 125.463 80.872C124.407 81.952 123.051 82.492 121.395 82.492ZM119.307 79.036C119.859 79.588 120.555 79.864 121.395 79.864C122.235 79.864 122.919 79.576 123.447 79C123.999 78.424 124.275 77.728 124.275 76.912C124.275 76.096 123.999 75.412 123.447 74.86C122.919 74.284 122.235 73.996 121.395 73.996C120.555 73.996 119.859 74.284 119.307 74.86C118.779 75.412 118.515 76.096 118.515 76.912C118.515 77.752 118.779 78.46 119.307 79.036ZM117.399 93.436L134.139 74.716L135.903 75.688L119.127 94.444L117.399 93.436ZM136.335 95.812C135.255 96.892 133.899 97.432 132.267 97.432C130.635 97.432 129.279 96.892 128.199 95.812C127.119 94.732 126.579 93.412 126.579 91.852C126.579 90.292 127.119 88.972 128.199 87.892C129.279 86.812 130.635 86.272 132.267 86.272C133.899 86.272 135.255 86.812 136.335 87.892C137.415 88.972 137.955 90.292 137.955 91.852C137.955 93.412 137.415 94.732 136.335 95.812ZM130.179 93.94C130.731 94.492 131.427 94.768 132.267 94.768C133.107 94.768 133.791 94.492 134.319 93.94C134.871 93.364 135.147 92.668 135.147 91.852C135.147 91.036 134.871 90.352 134.319 89.8C133.791 89.224 133.107 88.936 132.267 88.936C131.427 88.936 130.731 89.224 130.179 89.8C129.651 90.352 129.387 91.036 129.387 91.852C129.387 92.668 129.651 93.364 130.179 93.94Z" fill="#001C27"/>
<path d="M97.16 135.76C97.84 136.107 98.3733 136.573 98.76 137.16C99.1467 137.747 99.34 138.413 99.34 139.16C99.34 140.44 98.8933 141.447 98 142.18C97.1067 142.9 95.9533 143.26 94.54 143.26C93.14 143.26 91.9933 142.9 91.1 142.18C90.2067 141.447 89.76 140.44 89.76 139.16C89.76 138.413 89.9533 137.747 90.34 137.16C90.7267 136.573 91.26 136.107 91.94 135.76C90.7933 135.04 90.22 134.02 90.22 132.7C90.22 131.433 90.64 130.46 91.48 129.78C92.3333 129.087 93.3533 128.74 94.54 128.74C95.74 128.74 96.76 129.087 97.6 129.78C98.4533 130.46 98.88 131.433 98.88 132.7C98.88 134.02 98.3067 135.04 97.16 135.76ZM94.54 130.52C93.8333 130.52 93.24 130.707 92.76 131.08C92.2933 131.453 92.06 132.007 92.06 132.74C92.06 133.447 92.3 134 92.78 134.4C93.26 134.787 93.8467 134.98 94.54 134.98C95.2333 134.98 95.82 134.787 96.3 134.4C96.78 134 97.02 133.447 97.02 132.74C97.02 132.007 96.7867 131.453 96.32 131.08C95.8533 130.707 95.26 130.52 94.54 130.52ZM94.54 141.48C95.4333 141.48 96.1467 141.273 96.68 140.86C97.2267 140.433 97.5 139.827 97.5 139.04C97.5 138.267 97.2267 137.673 96.68 137.26C96.1467 136.833 95.4333 136.62 94.54 136.62C93.66 136.62 92.9467 136.833 92.4 137.26C91.8667 137.673 91.6 138.267 91.6 139.04C91.6 139.827 91.8667 140.433 92.4 140.86C92.9467 141.273 93.66 141.48 94.54 141.48ZM110.374 141.28C109.427 142.6 108.1 143.26 106.394 143.26C104.687 143.26 103.36 142.6 102.414 141.28C101.467 139.96 100.994 138.2 100.994 136C100.994 133.8 101.467 132.04 102.414 130.72C103.36 129.4 104.687 128.74 106.394 128.74C108.1 128.74 109.427 129.4 110.374 130.72C111.32 132.04 111.794 133.8 111.794 136C111.794 138.2 111.32 139.96 110.374 141.28ZM103.774 140.02C104.387 140.967 105.26 141.44 106.394 141.44C107.527 141.44 108.4 140.967 109.014 140.02C109.64 139.073 109.954 137.733 109.954 136C109.954 134.267 109.64 132.927 109.014 131.98C108.4 131.02 107.527 130.54 106.394 130.54C105.26 130.54 104.387 131.013 103.774 131.96C103.16 132.907 102.854 134.253 102.854 136C102.854 137.733 103.16 139.073 103.774 140.02ZM116.561 134.94C115.654 134.94 114.901 134.64 114.301 134.04C113.701 133.44 113.401 132.707 113.401 131.84C113.401 130.987 113.701 130.26 114.301 129.66C114.914 129.047 115.667 128.74 116.561 128.74C117.467 128.74 118.221 129.04 118.821 129.64C119.421 130.24 119.721 130.973 119.721 131.84C119.721 132.707 119.421 133.44 118.821 134.04C118.234 134.64 117.481 134.94 116.561 134.94ZM115.401 133.02C115.707 133.327 116.094 133.48 116.561 133.48C117.027 133.48 117.407 133.32 117.701 133C118.007 132.68 118.161 132.293 118.161 131.84C118.161 131.387 118.007 131.007 117.701 130.7C117.407 130.38 117.027 130.22 116.561 130.22C116.094 130.22 115.707 130.38 115.401 130.7C115.107 131.007 114.961 131.387 114.961 131.84C114.961 132.307 115.107 132.7 115.401 133.02ZM114.341 141.02L123.641 130.62L124.621 131.16L115.301 141.58L114.341 141.02ZM124.861 142.34C124.261 142.94 123.507 143.24 122.601 143.24C121.694 143.24 120.941 142.94 120.341 142.34C119.741 141.74 119.441 141.007 119.441 140.14C119.441 139.273 119.741 138.54 120.341 137.94C120.941 137.34 121.694 137.04 122.601 137.04C123.507 137.04 124.261 137.34 124.861 137.94C125.461 138.54 125.761 139.273 125.761 140.14C125.761 141.007 125.461 141.74 124.861 142.34ZM121.441 141.3C121.747 141.607 122.134 141.76 122.601 141.76C123.067 141.76 123.447 141.607 123.741 141.3C124.047 140.98 124.201 140.593 124.201 140.14C124.201 139.687 124.047 139.307 123.741 139C123.447 138.68 123.067 138.52 122.601 138.52C122.134 138.52 121.747 138.68 121.441 139C121.147 139.307 121.001 139.687 121.001 140.14C121.001 140.593 121.147 140.98 121.441 141.3Z" fill="#2D9CDB"/>
</svg>
