<svg width="16" height="16" viewBox="0 0 16 16" fill="none" xmlns="http://www.w3.org/2000/svg">
<rect width="16" height="16" rx="4" fill="#2D9CDB"/>
<mask id="mask0_218_1274" style="mask-type:alpha" maskUnits="userSpaceOnUse" x="0" y="0" width="16" height="16">
<rect width="16" height="16" fill="#1C1B1F"/>
</mask>
<g mask="url(#mask0_218_1274)">
<path d="M8.14286 13.7142C7.89524 13.7142 7.67143 13.6548 7.47143 13.5359C7.27143 13.4167 7.11429 13.2571 7 13.0571C6.68571 13.0571 6.41676 12.9453 6.19314 12.7216C5.96914 12.4976 5.85714 12.2285 5.85714 11.9142V9.88564C5.29524 9.51422 4.84533 9.02374 4.50743 8.41422C4.16914 7.80469 4 7.14279 4 6.4285C4 5.27612 4.40229 4.29745 5.20686 3.4925C6.01181 2.68793 6.99048 2.28564 8.14286 2.28564C9.29524 2.28564 10.2737 2.68793 11.0783 3.4925C11.8832 4.29745 12.2857 5.27612 12.2857 6.4285C12.2857 7.16184 12.1168 7.8285 11.7789 8.4285C11.4406 9.0285 10.9905 9.51422 10.4286 9.88564V11.9142C10.4286 12.2285 10.3168 12.4976 10.0931 12.7216C9.86914 12.9453 9.6 13.0571 9.28571 13.0571C9.17143 13.2571 9.01429 13.4167 8.81429 13.5359C8.61429 13.6548 8.39048 13.7142 8.14286 13.7142ZM7 11.9142H9.28571V11.3999H7V11.9142ZM7 10.8285H9.28571V10.2856H7V10.8285ZM6.88571 9.14279H7.71429V7.59993L6.45714 6.34279L7.05714 5.74279L8.14286 6.8285L9.22857 5.74279L9.82857 6.34279L8.57143 7.59993V9.14279H9.4C9.91429 8.89517 10.3333 8.53079 10.6571 8.04964C10.981 7.56888 11.1429 7.0285 11.1429 6.4285C11.1429 5.59041 10.8524 4.88088 10.2714 4.29993C9.69048 3.71898 8.98095 3.4285 8.14286 3.4285C7.30476 3.4285 6.59524 3.71898 6.01429 4.29993C5.43333 4.88088 5.14286 5.59041 5.14286 6.4285C5.14286 7.0285 5.30476 7.56888 5.62857 8.04964C5.95238 8.53079 6.37143 8.89517 6.88571 9.14279Z" fill="white"/>
</g>
</svg>
