<svg width="16" height="16" viewBox="0 0 16 16" fill="none" xmlns="http://www.w3.org/2000/svg">
<rect width="16" height="16" rx="8" fill="#2D9CDB"/>
<mask id="mask0_218_1883" style="mask-type:alpha" maskUnits="userSpaceOnUse" x="0" y="0" width="16" height="16">
<rect width="16" height="16" fill="#1C1B1F"/>
</mask>
<g mask="url(#mask0_218_1883)">
<path d="M6.28571 4.57132H7.42857V3.42847H6.28571V4.57132ZM8.57143 4.57132V3.42847H9.71429V4.57132H8.57143ZM6.28571 9.14275V7.9999H7.42857V9.14275H6.28571ZM10.8571 6.85704V5.71418H12V6.85704H10.8571ZM10.8571 9.14275V7.9999H12V9.14275H10.8571ZM8.57143 9.14275V7.9999H9.71429V9.14275H8.57143ZM10.8571 4.57132V3.42847H12V4.57132H10.8571ZM7.42857 5.71418V4.57132H8.57143V5.71418H7.42857ZM4 12.5713V3.42847H5.14286V4.57132H6.28571V5.71418H5.14286V6.85704H6.28571V7.9999H5.14286V12.5713H4ZM9.71429 7.9999V6.85704H10.8571V7.9999H9.71429ZM7.42857 7.9999V6.85704H8.57143V7.9999H7.42857ZM6.28571 6.85704V5.71418H7.42857V6.85704H6.28571ZM8.57143 6.85704V5.71418H9.71429V6.85704H8.57143ZM9.71429 5.71418V4.57132H10.8571V5.71418H9.71429Z" fill="white"/>
</g>
</svg>
