<svg width="16" height="16" viewBox="0 0 16 16" fill="none" xmlns="http://www.w3.org/2000/svg">
<rect width="16" height="16" rx="4" fill="#2D9CDB"/>
<mask id="mask0_218_542" style="mask-type:alpha" maskUnits="userSpaceOnUse" x="0" y="0" width="16" height="16">
<rect width="16" height="16" fill="#1C1B1F"/>
</mask>
<g mask="url(#mask0_218_542)">
<path d="M9.88577 10.6856L10.6858 9.88564L8.57148 7.77136V5.14279H7.42862V8.2285L9.88577 10.6856ZM8.00005 13.7142C7.20958 13.7142 6.46672 13.5641 5.77148 13.2639C5.07624 12.9641 4.47148 12.5571 3.9572 12.0428C3.44291 11.5285 3.03586 10.9237 2.73605 10.2285C2.43586 9.53326 2.28577 8.79041 2.28577 7.99993C2.28577 7.20945 2.43586 6.4666 2.73605 5.77136C3.03586 5.07612 3.44291 4.47136 3.9572 3.95707C4.47148 3.44279 5.07624 3.03555 5.77148 2.73536C6.46672 2.43555 7.20958 2.28564 8.00005 2.28564C8.79053 2.28564 9.53339 2.43555 10.2286 2.73536C10.9239 3.03555 11.5286 3.44279 12.0429 3.95707C12.5572 4.47136 12.9642 5.07612 13.2641 5.77136C13.5642 6.4666 13.7143 7.20945 13.7143 7.99993C13.7143 8.79041 13.5642 9.53326 13.2641 10.2285C12.9642 10.9237 12.5572 11.5285 12.0429 12.0428C11.5286 12.5571 10.9239 12.9641 10.2286 13.2639C9.53339 13.5641 8.79053 13.7142 8.00005 13.7142ZM8.00005 12.5714C9.26672 12.5714 10.3454 12.1262 11.2361 11.2359C12.1263 10.3453 12.5715 9.2666 12.5715 7.99993C12.5715 6.73326 12.1263 5.6546 11.2361 4.76393C10.3454 3.87364 9.26672 3.4285 8.00005 3.4285C6.73339 3.4285 5.65491 3.87364 4.76462 4.76393C3.87396 5.6546 3.42862 6.73326 3.42862 7.99993C3.42862 9.2666 3.87396 10.3453 4.76462 11.2359C5.65491 12.1262 6.73339 12.5714 8.00005 12.5714Z" fill="white"/>
</g>
</svg>
