<svg width="24" height="24" viewBox="0 0 24 24" fill="none" xmlns="http://www.w3.org/2000/svg">
<g id="more_horiz">
<mask id="mask0_200_10128" style="mask-type:alpha" maskUnits="userSpaceOnUse" x="0" y="0" width="24" height="24">
<rect id="Bounding box" y="24" width="24" height="24" transform="rotate(-90 0 24)" fill="#D9D9D9"/>
</mask>
<g mask="url(#mask0_200_10128)">
<g id="more_horiz_2">
<path d="M14 18C14 18.55 13.804 19.0207 13.412 19.412C13.0207 19.804 12.55 20 12 20C11.45 20 10.979 19.804 10.587 19.412C10.1957 19.0207 10 18.55 10 18C10 17.45 10.1957 16.9793 10.587 16.588C10.979 16.196 11.45 16 12 16C12.55 16 13.0207 16.196 13.412 16.588C13.804 16.9793 14 17.45 14 18ZM14 12C14 12.55 13.804 13.0207 13.412 13.412C13.0207 13.804 12.55 14 12 14C11.45 14 10.979 13.804 10.587 13.412C10.1957 13.0207 10 12.55 10 12C10 11.45 10.1957 10.979 10.587 10.587C10.979 10.1957 11.45 10 12 10C12.55 10 13.0207 10.1957 13.412 10.587C13.804 10.979 14 11.45 14 12ZM14 6C14 6.55 13.804 7.021 13.412 7.413C13.0207 7.80433 12.55 8 12 8C11.45 8 10.979 7.80433 10.587 7.413C10.1957 7.021 10 6.55 10 6C10 5.45 10.1957 4.979 10.587 4.587C10.979 4.19567 11.45 4 12 4C12.55 4 13.0207 4.19567 13.412 4.587C13.804 4.979 14 5.45 14 6Z" fill="#4F4F4F"/>
</g>
</g>
</g>
</svg>
