<svg width="920" height="242" viewBox="0 0 920 242" fill="none" xmlns="http://www.w3.org/2000/svg">
<rect width="920" height="242" rx="8" fill="#BEE8FF"/>
<rect width="920" height="128" transform="translate(0 114)" fill="#E5D1FF"/>
<path d="M245.75 99.5961C245.75 99.5961 246.794 96.4594 249.256 94.4914C249.729 94.1139 250.621 93.7354 251.756 93.3702C260.446 90.5729 270.242 92.7838 276.97 98.9546C278.027 99.9235 278.881 100.837 279.361 101.604C280.947 104.139 283.361 112.427 281.68 116.951C277.676 127.728 267.286 126.482 264.579 125.867C263.307 125.579 260.209 124.759 260.209 124.759C260.209 124.759 253.132 130.602 244.616 126.121C238.132 122.709 238.935 117.609 238.935 117.609C238.935 117.609 234.57 113.243 236.46 107.163C238.738 99.841 245.75 99.5961 245.75 99.5961Z" fill="#BA68C8"/>
<path d="M248.771 119.495C248.771 119.495 250.189 119.413 250.773 119.246C251.357 119.078 252.148 118.579 252.148 118.579C252.148 118.579 257.627 124.312 258.194 124.793C258.748 125.261 259.401 118.12 259.401 118.12C259.401 118.12 260.652 118.313 261.82 118.128C263.359 117.883 264.407 117.394 264.407 117.394C264.407 117.394 263.659 121.789 263.367 123.456C263.182 124.526 263.118 127.5 263.118 127.5L259.113 130.834L256.067 128.789C256.067 128.789 256.058 127.985 255.607 127.44C254.206 125.747 248.771 119.495 248.771 119.495ZM262.74 129.296L265.786 125.626C265.786 125.626 266.869 125.708 267.664 125.708C268.455 125.708 269.834 125.54 269.834 125.54C269.834 125.54 267.333 128.918 265.997 130.585C264.661 132.252 262.912 134.34 262.912 134.34L261.245 129.502L262.74 129.296Z" fill="#6D4B41"/>
<path d="M260.574 126.374C259.328 126.486 256.071 128.794 256.071 128.794C256.071 128.794 256.239 132.712 256.114 134.925C255.99 137.138 255.117 140.752 255.921 141.667C256.617 142.458 262.469 142.608 263.342 141.689C264.218 140.769 263.367 136.971 263.367 134.508C263.367 132.046 263.118 127.5 263.118 127.5C263.118 127.5 261.992 126.25 260.574 126.374Z" fill="#865B50"/>
<path d="M569.75 96.5961C569.75 96.5961 570.794 93.4594 573.256 91.4914C573.729 91.1139 574.621 90.7354 575.756 90.3702C584.446 87.5729 594.242 89.7838 600.97 95.9546C602.027 96.9235 602.881 97.8372 603.361 98.6042C604.947 101.139 607.361 109.427 605.68 113.951C601.676 124.728 591.286 123.482 588.579 122.867C587.307 122.579 584.209 121.759 584.209 121.759C584.209 121.759 577.132 127.602 568.616 123.121C562.132 119.709 562.935 114.609 562.935 114.609C562.935 114.609 558.57 110.243 560.46 104.163C562.738 96.841 569.75 96.5961 569.75 96.5961Z" fill="#BA68C8"/>
<path d="M572.771 116.495C572.771 116.495 574.189 116.413 574.773 116.246C575.357 116.078 576.148 115.579 576.148 115.579C576.148 115.579 581.627 121.312 582.194 121.793C582.748 122.261 583.401 115.12 583.401 115.12C583.401 115.12 584.652 115.313 585.82 115.128C587.359 114.883 588.407 114.394 588.407 114.394C588.407 114.394 587.659 118.789 587.367 120.456C587.182 121.526 587.118 124.5 587.118 124.5L583.113 127.834L580.067 125.789C580.067 125.789 580.058 124.985 579.607 124.44C578.206 122.747 572.771 116.495 572.771 116.495ZM586.74 126.296L589.786 122.626C589.786 122.626 590.869 122.708 591.664 122.708C592.455 122.708 593.834 122.54 593.834 122.54C593.834 122.54 591.333 125.918 589.997 127.585C588.661 129.252 586.912 131.34 586.912 131.34L585.245 126.502L586.74 126.296Z" fill="#6D4B41"/>
<path d="M584.574 123.374C583.328 123.486 580.071 125.794 580.071 125.794C580.071 125.794 580.239 129.712 580.114 131.925C579.989 134.138 579.117 137.752 579.921 138.667C580.617 139.458 586.469 139.608 587.341 138.689C588.218 137.769 587.367 133.971 587.367 131.508C587.367 129.046 587.118 124.5 587.118 124.5C587.118 124.5 585.992 123.25 584.574 123.374Z" fill="#865B50"/>
<path d="M613.75 80.5961C613.75 80.5961 614.794 77.4594 617.256 75.4914C617.729 75.1139 618.621 74.7354 619.756 74.3702C628.446 71.5729 638.242 73.7838 644.97 79.9546C646.027 80.9235 646.881 81.8372 647.361 82.6042C648.947 85.1394 651.361 93.4266 649.68 97.9512C645.676 108.728 635.286 107.482 632.579 106.867C631.307 106.579 628.209 105.759 628.209 105.759C628.209 105.759 621.132 111.602 612.616 107.121C606.132 103.709 606.935 98.6086 606.935 98.6086C606.935 98.6086 602.57 94.243 604.46 88.1629C606.738 80.841 613.75 80.5961 613.75 80.5961Z" fill="#BA68C8"/>
<path d="M616.771 100.495C616.771 100.495 618.189 100.413 618.773 100.246C619.357 100.078 620.148 99.5795 620.148 99.5795C620.148 99.5795 625.627 105.312 626.194 105.793C626.748 106.261 627.401 99.1197 627.401 99.1197C627.401 99.1197 628.652 99.3131 629.82 99.1283C631.359 98.8834 632.407 98.3936 632.407 98.3936C632.407 98.3936 631.659 102.789 631.367 104.456C631.182 105.526 631.118 108.5 631.118 108.5L627.113 111.834L624.067 109.789C624.067 109.789 624.058 108.985 623.607 108.44C622.206 106.747 616.771 100.495 616.771 100.495ZM630.74 110.296L633.786 106.626C633.786 106.626 634.869 106.708 635.664 106.708C636.455 106.708 637.834 106.54 637.834 106.54C637.834 106.54 635.333 109.918 633.997 111.585C632.661 113.252 630.912 115.34 630.912 115.34L629.245 110.502L630.74 110.296Z" fill="#6D4B41"/>
<path d="M628.574 107.374C627.328 107.486 624.071 109.794 624.071 109.794C624.071 109.794 624.239 113.712 624.114 115.925C623.989 118.138 623.117 121.752 623.921 122.667C624.617 123.458 630.469 123.608 631.341 122.689C632.218 121.769 631.367 117.971 631.367 115.508C631.367 113.046 631.118 108.5 631.118 108.5C631.118 108.5 629.992 107.25 628.574 107.374Z" fill="#865B50"/>
<path d="M384.119 32.0551H384.115C384.115 32.0288 384.119 32.0026 384.119 31.9763C384.119 28.3951 381.216 25.4888 377.631 25.4888C377.17 25.4888 376.72 25.5376 376.289 25.6313C375.003 22.5038 371.931 20.2988 368.339 20.2988C365.643 20.2988 363.239 21.5438 361.664 23.4863C360.618 22.9546 359.462 22.6771 358.289 22.6763C354.408 22.6763 351.22 25.6313 350.849 29.4151C346.63 29.6401 343.244 33.0976 343.188 37.3913C343.128 41.8613 346.709 45.5363 351.179 45.5926C351.528 45.5963 351.865 45.5738 352.203 45.5326C353.931 49.1776 357.64 51.6976 361.941 51.6976C364.536 51.6976 366.914 50.7788 368.774 49.2526C370.195 50.3063 371.95 50.9363 373.855 50.9363C377.763 50.9363 381.051 48.3151 382.075 44.7338C382.72 44.9476 383.406 45.0676 384.123 45.0676C387.715 45.0676 390.629 42.1538 390.629 38.5613C390.625 34.9688 387.715 32.0551 384.119 32.0551Z" fill="#E3EBEE"/>
<path d="M387.944 33.2964C389.417 34.7851 388.375 38.1976 387.362 39.3114C385.367 41.4976 381.707 40.9876 380.237 40.6726C379.84 40.5864 379.776 40.6164 379.645 40.6951C379.529 40.7664 379.476 40.8789 379.349 41.1451C378.876 42.1651 377.654 44.1414 375.074 44.9364C372.385 45.7651 369.85 44.5014 368.665 43.7476C368.215 43.4626 368.196 43.4551 367.994 43.4589C367.787 43.4626 367.585 43.6126 367.341 43.8039C366.269 44.6476 363.82 46.1364 360.044 45.9189C356.342 45.7051 354.224 43.4251 353.496 42.2514C353.357 42.0264 353.207 41.8389 353.035 41.8201C352.836 41.8014 352.615 42.0039 352.45 42.1689C350.875 43.7026 345.917 44.1639 344.275 41.5501C345.947 44.2314 348.531 45.5589 351.182 45.5926C351.531 45.5964 351.869 45.5739 352.206 45.5326C353.935 49.1776 357.644 51.6976 361.945 51.6976C364.54 51.6976 366.917 50.7789 368.777 49.2526C370.199 50.3064 371.954 50.9364 373.859 50.9364C377.766 50.9364 381.055 48.3151 382.079 44.7339C382.724 44.9476 383.41 45.0676 384.126 45.0676C387.719 45.0676 390.632 42.1539 390.632 38.5614C390.625 36.6489 389.665 34.4889 387.944 33.2964Z" fill="#B9CDD2"/>
<path d="M612.126 57.2058H612.123C612.123 57.1872 612.126 57.1686 612.126 57.15C612.126 54.6133 610.07 52.5547 607.531 52.5547C607.204 52.5547 606.885 52.5892 606.58 52.6556C605.668 50.4403 603.493 48.8784 600.948 48.8784C599.038 48.8784 597.336 49.7603 596.22 51.1362C595.48 50.7596 594.66 50.563 593.83 50.5625C591.08 50.5625 588.823 52.6556 588.56 55.3358C585.571 55.4951 583.173 57.9442 583.133 60.9856C583.09 64.1519 585.627 66.755 588.793 66.7948C589.04 66.7975 589.279 66.7815 589.518 66.7523C590.743 69.3342 593.37 71.1192 596.417 71.1192C598.255 71.1192 599.939 70.4684 601.256 69.3873C602.263 70.1337 603.506 70.58 604.856 70.58C607.623 70.58 609.953 68.7233 610.678 66.1865C611.135 66.338 611.621 66.423 612.128 66.423C614.673 66.423 616.737 64.359 616.737 61.8144C616.734 59.2697 614.673 57.2058 612.126 57.2058Z" fill="#E3EBEE"/>
<path d="M614.835 58.085C615.879 59.1395 615.141 61.5567 614.423 62.3456C613.01 63.8942 610.418 63.5329 609.377 63.3098C609.095 63.2487 609.05 63.27 608.957 63.3257C608.874 63.3762 608.837 63.4559 608.747 63.6445C608.412 64.367 607.546 65.7668 605.719 66.33C603.814 66.917 602.019 66.0218 601.179 65.4879C600.861 65.2861 600.847 65.2807 600.704 65.2834C600.558 65.2861 600.414 65.3923 600.242 65.5278C599.482 66.1254 597.747 67.18 595.073 67.0259C592.451 66.8745 590.95 65.2595 590.435 64.4281C590.337 64.2687 590.23 64.1359 590.108 64.1226C589.967 64.1093 589.811 64.2528 589.694 64.3696C588.578 65.4561 585.067 65.7828 583.903 63.9314C585.088 65.8306 586.918 66.7709 588.796 66.7948C589.043 66.7975 589.282 66.7815 589.521 66.7523C590.746 69.3342 593.373 71.1192 596.419 71.1192C598.257 71.1192 599.942 70.4684 601.259 69.3873C602.266 70.1337 603.509 70.58 604.858 70.58C607.626 70.58 609.956 68.7232 610.681 66.1865C611.138 66.3379 611.624 66.4229 612.131 66.4229C614.676 66.4229 616.74 64.359 616.74 61.8143C616.734 60.4596 616.054 58.9296 614.835 58.085Z" fill="#B9CDD2"/>
<path d="M385 78.8712C385 78.8712 386.367 74.765 389.59 72.1887C390.722 71.2841 393.698 70.375 397.085 69.5761C405.97 67.48 415.383 69.5214 422.529 75.2028C425.372 77.4633 427.915 79.7674 429 81.5C431.076 84.8187 434.236 95.6675 432.036 101.591C426.794 115.698 413.192 114.067 409.649 113.262C407.984 112.886 403.928 111.811 403.928 111.811C403.928 111.811 394.664 119.461 383.515 113.594C375.027 109.128 376.079 102.451 376.079 102.451C376.079 102.451 370.364 96.7362 372.839 88.7768C375.82 79.1918 385 78.8712 385 78.8712Z" fill="#BA68C8"/>
<path d="M388.954 104.921C388.954 104.921 390.811 104.814 391.576 104.594C392.341 104.375 393.376 103.722 393.376 103.722C393.376 103.722 400.547 111.226 401.29 111.856C402.016 112.469 402.871 103.121 402.871 103.121C402.871 103.121 404.507 103.374 406.037 103.132C408.051 102.811 409.424 102.17 409.424 102.17C409.424 102.17 408.445 107.924 408.062 110.107C407.821 111.507 407.736 115.4 407.736 115.4L402.494 119.765L398.506 117.087C398.506 117.087 398.494 116.036 397.904 115.321C396.07 113.105 388.954 104.921 388.954 104.921ZM407.241 117.751L411.229 112.947C411.229 112.947 412.647 113.054 413.687 113.054C414.722 113.054 416.528 112.835 416.528 112.835C416.528 112.835 413.254 117.256 411.505 119.439C409.756 121.621 407.466 124.355 407.466 124.355L405.284 118.021L407.241 117.751Z" fill="#6D4B41"/>
<path d="M404.406 113.926C402.775 114.073 398.511 117.093 398.511 117.093C398.511 117.093 398.731 122.223 398.567 125.12C398.404 128.017 397.262 132.748 398.314 133.946C399.226 134.981 406.887 135.178 408.029 133.974C409.176 132.77 408.062 127.798 408.062 124.575C408.062 121.351 407.736 115.4 407.736 115.4C407.736 115.4 406.262 113.763 404.406 113.926Z" fill="#865B50"/>
</svg>
