<svg width="24" height="24" viewBox="0 0 24 24" fill="none" xmlns="http://www.w3.org/2000/svg">
<mask id="mask0_200_10740" style="mask-type:alpha" maskUnits="userSpaceOnUse" x="0" y="0" width="24" height="24">
<rect width="24" height="24" fill="#D9D9D9"/>
</mask>
<g mask="url(#mask0_200_10740)">
<path d="M5.99999 19.6155C5.55578 19.6155 5.17549 19.4573 4.85914 19.141C4.54281 18.8246 4.38464 18.4443 4.38464 18.0001C4.38464 17.5559 4.54281 17.1756 4.85914 16.8593C5.17549 16.5429 5.55578 16.3848 5.99999 16.3848C6.44421 16.3848 6.82449 16.5429 7.14084 16.8593C7.45718 17.1756 7.61534 17.5559 7.61534 18.0001C7.61534 18.4443 7.45718 18.8246 7.14084 19.141C6.82449 19.4573 6.44421 19.6155 5.99999 19.6155ZM5.99999 13.6155C5.55578 13.6155 5.17549 13.4573 4.85914 13.141C4.54281 12.8246 4.38464 12.4443 4.38464 12.0001C4.38464 11.5559 4.54281 11.1756 4.85914 10.8593C5.17549 10.5429 5.55578 10.3848 5.99999 10.3848C6.44421 10.3848 6.82449 10.5429 7.14084 10.8593C7.45718 11.1756 7.61534 11.5559 7.61534 12.0001C7.61534 12.4443 7.45718 12.8246 7.14084 13.141C6.82449 13.4573 6.44421 13.6155 5.99999 13.6155ZM5.99999 7.61547C5.55578 7.61547 5.17549 7.4573 4.85914 7.14097C4.54281 6.82462 4.38464 6.44433 4.38464 6.00012C4.38464 5.5559 4.54281 5.17562 4.85914 4.85927C5.17549 4.54293 5.55578 4.38477 5.99999 4.38477C6.44421 4.38477 6.82449 4.54293 7.14084 4.85927C7.45718 5.17562 7.61534 5.5559 7.61534 6.00012C7.61534 6.44433 7.45718 6.82462 7.14084 7.14097C6.82449 7.4573 6.44421 7.61547 5.99999 7.61547ZM11.9966 13.6155C11.5514 13.6155 11.1715 13.4573 10.8567 13.141C10.542 12.8246 10.3846 12.4443 10.3846 12.0001C10.3846 11.5559 10.5428 11.1756 10.8591 10.8593C11.1755 10.5429 11.5558 10.3848 12 10.3848C12.4442 10.3848 12.8245 10.5429 13.1408 10.8593C13.4572 11.1756 13.6153 11.5559 13.6153 12.0001L11.9966 13.6155ZM12 7.61547C11.5558 7.61547 11.1755 7.4573 10.8591 7.14097C10.5428 6.82462 10.3846 6.44433 10.3846 6.00012C10.3846 5.5559 10.5428 5.17562 10.8591 4.85927C11.1755 4.54293 11.5558 4.38477 12 4.38477C12.4442 4.38477 12.8245 4.54293 13.1408 4.85927C13.4572 5.17562 13.6153 5.5559 13.6153 6.00012C13.6153 6.44433 13.4572 6.82462 13.1408 7.14097C12.8245 7.4573 12.4442 7.61547 12 7.61547ZM11 19.7309V18.1347L16.5885 12.5463L18.1846 14.1424L12.5961 19.7309H11ZM18 7.61547C17.5558 7.61547 17.1755 7.4573 16.8591 7.14097C16.5428 6.82462 16.3846 6.44433 16.3846 6.00012C16.3846 5.5559 16.5428 5.17562 16.8591 4.85927C17.1755 4.54293 17.5558 4.38477 18 4.38477C18.4442 4.38477 18.8245 4.54293 19.1408 4.85927C19.4572 5.17562 19.6153 5.5559 19.6153 6.00012C19.6153 6.44433 19.4572 6.82462 19.1408 7.14097C18.8245 7.4573 18.4442 7.61547 18 7.61547ZM18.798 13.5385L17.1923 11.9328L17.8019 11.3328C17.9506 11.1841 18.124 11.1097 18.3221 11.1097C18.5202 11.1097 18.6852 11.1841 18.8173 11.3328L19.398 11.9136C19.5468 12.0456 19.6195 12.2107 19.6163 12.4088C19.6131 12.6068 19.5403 12.7802 19.398 12.9289L18.798 13.5385Z" fill="#82ACF5"/>
</g>
</svg>
