<svg width="77" height="87" viewBox="0 0 77 87" fill="none" xmlns="http://www.w3.org/2000/svg">
<g id="freepik--Character--inject-9">
<path id="Vector" d="M28.7387 59.1312L36.3889 56.0418L42.2312 40.7803L50.0194 44.7931C50.0194 44.7931 49.2686 46.2989 47.6592 50.0312C47.0335 51.4681 44.9754 55.4852 44.1383 57.4398C43.3636 59.2469 42.0876 60.7945 40.4613 61.8994C38.8349 63.0043 36.9261 63.6203 34.9607 63.6747L27.7808 63.8602L28.7387 59.1312Z" fill="#FFBF9D"/>
<path id="Vector_2" d="M24.9376 56.1799L23.7984 54.9632C23.5771 54.818 23.3166 54.7442 23.052 54.7517L19.393 54.8639C19.0514 54.8969 18.7216 55.0063 18.4281 55.1841C18.1345 55.3619 17.8848 55.6034 17.6973 55.8908L16.364 58.1561C16.364 58.1561 15.4708 59.7051 15.583 60.0849C15.633 60.2425 15.7396 60.376 15.8822 60.4597C16.0248 60.5434 16.1934 60.5712 16.3554 60.5379C16.3554 60.5379 16.4848 61.2542 16.7221 61.4009C16.8595 61.47 17.0095 61.5107 17.163 61.5203C17.3165 61.53 17.4704 61.5084 17.6153 61.457C17.6783 61.5929 17.7806 61.7067 17.9092 61.7837C18.0377 61.8606 18.1863 61.8971 18.3359 61.8885C18.4 61.8825 18.4636 61.8709 18.5257 61.8539C18.9572 61.7202 19.1557 60.8788 19.1557 60.8788L21.0111 60.5379C21.0111 60.5379 23.6776 62.3199 24.6183 63.4849C25.5589 64.6499 28.0183 63.7611 28.0183 63.7611L28.9374 59.36L24.9376 56.1799Z" fill="#FFBF9D"/>
<path id="Vector_3" d="M22.2407 56.702C21.9804 56.7826 21.7105 56.8276 21.4381 56.8358C20.9333 56.8919 20.2214 56.9134 19.4145 57.017L19.5008 56.9523C19.3621 57.2502 19.2035 57.5385 19.0262 57.8152C18.5389 58.5883 17.9464 59.2897 17.2657 59.8993C16.9983 60.1679 16.6876 60.3896 16.3466 60.5552C16.3466 60.525 16.6703 60.2661 17.1535 59.7785C17.7881 59.1478 18.351 58.4488 18.832 57.6944C19.0089 57.4053 19.1685 57.1206 19.3023 56.8315L19.3282 56.7754H19.3886C20.2127 56.6848 20.9247 56.6934 21.4295 56.6761C21.7001 56.6567 21.9719 56.6653 22.2407 56.702Z" fill="#FF9A6C"/>
<path id="Vector_4" d="M22.3226 58.4494C22.1067 58.5548 21.8721 58.6164 21.6323 58.6306C21.0363 58.7131 20.4307 58.6926 19.8416 58.5702L19.9754 58.4969C19.8978 58.7229 19.8085 58.9447 19.7079 59.1614C19.3742 59.8498 18.9062 60.4645 18.3314 60.9693C18.107 61.1917 17.8399 61.3664 17.5461 61.4827C17.7591 61.2595 17.9838 61.0478 18.2193 60.8485C18.7512 60.331 19.1892 59.7252 19.5137 59.0578C19.6135 58.8516 19.7014 58.6398 19.7769 58.4235L19.8114 58.3286H19.9063C20.7027 58.4775 21.5155 58.5182 22.3226 58.4494Z" fill="#FF9A6C"/>
<path id="Vector_5" d="M26.9741 59.3514L23.7078 57.8326C23.2694 57.5886 22.7839 57.4415 22.2839 57.4011C21.7491 57.448 21.233 57.621 20.778 57.906L19.0176 58.8121C18.9226 58.8639 18.8191 58.9243 18.7889 59.0235C18.7587 59.1227 18.8406 59.2953 18.9399 59.3946C19.3943 59.8245 19.989 60.0753 20.6141 60.1007C21.2391 60.1261 21.8522 59.9243 22.34 59.5326C22.5783 60.3104 22.9507 61.0405 23.4402 61.6901C23.6906 62.0157 24.0206 62.2713 24.3985 62.4323C24.7764 62.5933 25.1894 62.6542 25.5977 62.6091" fill="#FFBF9D"/>
<path id="Vector_6" d="M25.589 62.6521C25.5618 62.6654 25.5327 62.6742 25.5027 62.6779C25.4151 62.6996 25.3253 62.7112 25.2351 62.7125C24.8924 62.7137 24.5546 62.6307 24.2514 62.4708C23.7818 62.2252 23.3835 61.8626 23.095 61.418C22.7369 60.847 22.4473 60.2359 22.232 59.5972L22.396 59.636C22.1339 59.8561 21.8308 60.022 21.5042 60.1243C21.1776 60.2265 20.8339 60.2629 20.4932 60.2315C20.1227 60.2061 19.7613 60.1048 19.4317 59.9337C19.2629 59.8444 19.1051 59.7359 18.9614 59.6101C18.8835 59.5458 18.8127 59.4735 18.75 59.3944C18.7093 59.3451 18.6801 59.2874 18.6644 59.2255C18.6487 59.1636 18.647 59.0989 18.6594 59.0362C18.6734 58.9848 18.6979 58.9368 18.7313 58.8952C18.7647 58.8536 18.8063 58.8194 18.8535 58.7946C18.9312 58.7471 18.9959 58.717 19.0649 58.6781L19.4705 58.471L20.2688 58.0395C20.7646 57.7491 21.2933 57.5188 21.8437 57.3535C22.3721 57.2583 22.9171 57.3418 23.3927 57.5908C23.8242 57.7893 24.2557 57.9877 24.6009 58.1647L26.3268 59.0276C26.5436 59.1253 26.7528 59.2392 26.9524 59.3685C26.7241 59.3008 26.5019 59.2142 26.288 59.1096L24.5189 58.3286L23.3021 57.7849C22.8635 57.5601 22.3622 57.4887 21.8782 57.5821C21.3473 57.7481 20.8376 57.9755 20.3594 58.2596L19.5655 58.6911L19.1599 58.9025C19.0218 58.9715 18.8751 59.0406 18.8665 59.1096C18.8578 59.1786 18.9657 59.3469 19.0995 59.4548C19.2312 59.5693 19.376 59.6678 19.5309 59.7482C19.8327 59.9045 20.1629 59.9985 20.5018 60.0243C21.1322 60.0857 21.7614 59.8966 22.2536 59.4979L22.3658 59.403L22.4132 59.5411C22.6144 60.169 22.885 60.7725 23.2201 61.3404C23.4842 61.771 23.8522 62.1285 24.2902 62.3802C24.6883 62.5929 25.139 62.6873 25.589 62.6521Z" fill="#FF9A6C"/>
<path id="Vector_7" d="M69.4493 16.6001C69.4795 14.1493 69.8808 11.7071 69.7686 9.26487C69.6564 6.82269 69.0307 4.264 67.3221 2.50786C65.6134 0.751732 62.6319 0.0872566 60.647 1.48957L60.2156 3.57794C61.0009 13.0274 60.8973 22.6279 61.6826 32.0773C61.7862 33.32 62.7915 34.4462 63.3567 35.5551C63.922 36.664 65.0568 37.583 66.2995 37.5054C67.9261 37.4061 68.9919 35.7579 69.4967 34.2045C71.3521 28.591 69.3759 22.5243 69.4493 16.6001Z" fill="#263238"/>
<path id="Vector_8" d="M63.5551 3.89295C63.2279 3.27034 62.8073 2.70141 62.3082 2.20585C62.0564 1.95941 61.752 1.77317 61.418 1.66108C61.084 1.54899 60.7289 1.51396 60.3794 1.55863C60.2148 1.57909 60.0582 1.64139 59.9245 1.73958C59.7908 1.83778 59.6845 1.9686 59.6157 2.11955C59.5078 2.43022 59.7408 2.84876 60.0688 2.81855L60.1378 2.87897C60.8713 3.52906 61.6178 4.16334 62.3772 4.7818C62.5584 4.95084 62.771 5.08276 63.0029 5.17013C63.1194 5.21263 63.2456 5.2214 63.367 5.19546C63.4883 5.16951 63.5999 5.10989 63.6889 5.02343C63.9607 4.72139 63.7623 4.24245 63.5551 3.89295Z" fill="#FF725E"/>
<path id="Vector_9" d="M64.9402 6.30056C62.498 3.3147 59.2188 1.59309 55.3613 1.55426C53.2039 1.51542 52.2848 1.98574 50.7186 2.39133C49.1502 2.76998 47.764 3.68597 46.8007 4.98022C45.6918 6.55513 44.7598 8.3199 44.5484 10.24C44.2719 12.2018 44.178 14.1851 44.2679 16.1642C44.3584 18.1531 44.9976 20.0781 46.1146 21.726L51.1371 22.589C53.9115 22.6839 56.7248 22.7745 59.4302 22.1575C62.1356 21.5405 64.759 20.0692 66.2045 17.7003C68.2152 14.3865 67.3781 9.2821 64.9402 6.30056Z" fill="#263238"/>
<path id="Vector_10" d="M60.4742 6.26601L53.7776 3.60376L52.0258 3.80656C48.0907 3.80656 45.3724 8.16453 45.3465 11.3489C45.3206 14.8956 45.4241 19.2191 45.9851 21.8296C47.1199 27.0807 51.5943 27.5165 51.5943 27.5165C51.5943 27.5165 51.5037 30.3168 51.4692 32.0773L61.7255 31.3394L62.239 8.06528C62.2234 7.59891 62.0335 7.15534 61.7068 6.8222C61.38 6.48906 60.9402 6.29059 60.4742 6.26601Z" fill="#FFBF9D"/>
<path id="Vector_11" d="M53.8596 20.5999C53.8182 20.3315 53.6801 20.0875 53.4713 19.9138C53.2813 19.7502 53.0429 19.6535 52.7926 19.6387C52.5423 19.6239 52.2941 19.6918 52.0862 19.8318C51.8704 19.9981 51.7027 20.2189 51.6004 20.4714C51.498 20.7238 51.4647 20.999 51.5037 21.2687C51.619 21.4305 51.7676 21.5659 51.9395 21.6656C52.1114 21.7653 52.3027 21.8271 52.5004 21.8468C52.5622 21.8511 52.6242 21.8511 52.686 21.8468C53.0061 21.8535 53.316 21.7342 53.5489 21.5146C53.6661 21.3953 53.7549 21.251 53.8087 21.0927C53.8625 20.9343 53.8799 20.7659 53.8596 20.5999Z" fill="#FF9A6C"/>
<path id="Vector_12" d="M47.12 15.8321C47.1268 16.0095 47.2029 16.1771 47.332 16.299C47.4611 16.4208 47.6329 16.4871 47.8104 16.4836C47.8972 16.4853 47.9836 16.4698 48.0643 16.4379C48.1451 16.4059 48.2188 16.3583 48.281 16.2977C48.3432 16.2371 48.3928 16.1647 48.4268 16.0848C48.4608 16.0048 48.4786 15.9189 48.4792 15.8321C48.4703 15.6547 48.3929 15.4876 48.2633 15.3661C48.1337 15.2446 47.9621 15.1781 47.7845 15.1805C47.6978 15.1788 47.6117 15.1944 47.5312 15.2264C47.4506 15.2583 47.3773 15.3061 47.3154 15.3667C47.2535 15.4274 47.2044 15.4998 47.1708 15.5797C47.1373 15.6596 47.12 15.7454 47.12 15.8321Z" fill="#263238"/>
<path id="Vector_13" d="M46.5461 13.1224C46.6324 13.2044 47.1286 12.7988 47.8405 12.76C48.5525 12.7212 49.135 13.0577 49.204 12.9628C49.2731 12.8679 49.1436 12.7643 48.902 12.609C48.5736 12.4072 48.1907 12.3123 47.806 12.3371C47.4261 12.3559 47.062 12.4949 46.7661 12.7341C46.5677 12.9196 46.4986 13.0836 46.5461 13.1224Z" fill="#263238"/>
<path id="Vector_14" d="M51.2406 18.8567C50.8492 18.7538 50.4459 18.703 50.0411 18.7056C49.8556 18.7056 49.6744 18.6711 49.6355 18.5417C49.6121 18.3509 49.6451 18.1574 49.7305 17.9851C49.8815 17.5234 50.0411 17.0401 50.2051 16.531C50.8609 14.4685 51.3269 12.7728 51.2406 12.7469C51.1543 12.721 50.5589 14.3736 49.903 16.4404L49.4716 17.8988C49.3653 18.1301 49.3454 18.3919 49.4155 18.6366C49.4453 18.7009 49.4897 18.7573 49.5451 18.8015C49.6005 18.8457 49.6655 18.8764 49.7348 18.8912C49.8396 18.9136 49.947 18.9224 50.0541 18.9171C50.4506 18.9437 50.8489 18.9234 51.2406 18.8567Z" fill="#263238"/>
<path id="Vector_15" d="M51.5857 27.5123C54.0822 27.4135 56.5021 26.6233 58.5757 25.2297C58.5757 25.2297 56.8886 29.0052 51.5598 28.8024L51.5857 27.5123Z" fill="#FF9A6C"/>
<path id="Vector_16" d="M53.4196 19.2408C53.3031 19.2408 53.3419 20.0347 52.6947 20.6345C52.0475 21.2342 51.1975 21.1954 51.1975 21.3076C51.1975 21.4198 51.396 21.45 51.7498 21.4413C52.2164 21.4229 52.6614 21.2394 53.0054 20.9236C53.3347 20.6219 53.5342 20.2043 53.562 19.7586C53.5706 19.4263 53.4757 19.2365 53.4196 19.2408Z" fill="#263238"/>
<path id="Vector_17" d="M46.7919 10.5636C46.9257 10.7318 47.478 10.5851 48.1338 10.6024C48.7897 10.6197 49.342 10.762 49.4801 10.6024C49.5405 10.5204 49.4585 10.3521 49.2212 10.1709C48.9003 9.96236 48.5251 9.85283 48.1425 9.85594C47.7598 9.84566 47.3822 9.94603 47.0551 10.145C46.8178 10.309 46.7358 10.4773 46.7919 10.5636Z" fill="#263238"/>
<path id="Vector_18" d="M55.098 15.6507C55.1016 15.8279 55.036 15.9996 54.9152 16.1293C54.7944 16.2589 54.6278 16.3365 54.4507 16.3454C54.3644 16.3537 54.2774 16.3447 54.1946 16.3189C54.1118 16.2931 54.035 16.251 53.9687 16.1951C53.9024 16.1393 53.8479 16.0708 53.8085 15.9936C53.769 15.9164 53.7453 15.8321 53.7388 15.7457C53.7351 15.5687 53.8 15.3972 53.9198 15.2669C54.0396 15.1367 54.2051 15.0578 54.3817 15.0467C54.4686 15.0384 54.5562 15.0475 54.6395 15.0735C54.7228 15.0996 54.8001 15.1419 54.8668 15.1982C54.9335 15.2545 54.9883 15.3235 55.028 15.4012C55.0677 15.4789 55.0915 15.5637 55.098 15.6507Z" fill="#263238"/>
<path id="Vector_19" d="M56.4358 12.8375C56.3538 12.9281 55.8317 12.5571 55.0982 12.57C54.3647 12.583 53.8383 12.9627 53.7563 12.8721C53.6743 12.7814 53.7994 12.6736 54.0324 12.4967C54.3442 12.2719 54.7182 12.1498 55.1025 12.1472C55.4832 12.1387 55.8566 12.2521 56.1683 12.4708C56.3969 12.6391 56.4789 12.7987 56.4358 12.8375Z" fill="#263238"/>
<path id="Vector_20" d="M55.9955 10.499C55.8574 10.6672 55.2879 10.499 54.6105 10.499C53.933 10.499 53.3549 10.6327 53.2211 10.4601C53.1607 10.3782 53.2513 10.2099 53.4972 10.0287C53.8382 9.82894 54.2284 9.72878 54.6234 9.73956C55.0157 9.73507 55.4009 9.84449 55.7323 10.0545C55.9783 10.2444 56.0602 10.417 55.9955 10.499Z" fill="#263238"/>
<path id="Vector_21" d="M61.3373 16.9624C61.3373 16.5698 61.7213 15.6162 62.1096 15.5342C63.1409 15.3142 65.0178 15.2926 65.1818 17.9333C65.4062 21.5448 61.7299 21.0227 61.7299 20.9191C61.7299 20.8156 61.402 18.3259 61.3373 16.9624Z" fill="#FFBF9D"/>
<path id="Vector_22" d="M62.6317 19.5385C62.6317 19.5385 62.6964 19.5816 62.8042 19.6205C62.9564 19.6823 63.1267 19.6823 63.2789 19.6205C63.65 19.4565 63.9347 18.8308 63.9132 18.1793C63.9026 17.8694 63.823 17.5657 63.6802 17.2905C63.6397 17.1793 63.5724 17.0798 63.4844 17.0008C63.3963 16.9218 63.2902 16.8657 63.1753 16.8374C63.1024 16.823 63.0267 16.8345 62.9613 16.87C62.8959 16.9054 62.8449 16.9626 62.8172 17.0316C62.774 17.1351 62.8172 17.2085 62.7827 17.2128C62.7482 17.2171 62.7007 17.1567 62.7223 17.0057C62.7366 16.9152 62.7824 16.8326 62.8517 16.7727C62.8979 16.7318 62.9519 16.7007 63.0106 16.6814C63.0692 16.6621 63.1311 16.655 63.1926 16.6605C63.343 16.6786 63.486 16.736 63.6071 16.8269C63.7283 16.9178 63.8234 17.039 63.8829 17.1783C64.0553 17.4815 64.1515 17.8221 64.1634 18.1707C64.185 18.8999 63.8527 19.6032 63.3436 19.7844C63.2484 19.8189 63.1468 19.8318 63.046 19.8221C62.9453 19.8124 62.8479 19.7803 62.7611 19.7283C62.6317 19.6291 62.6317 19.5471 62.6317 19.5385Z" fill="#FF9A6C"/>
<path id="Vector_23" d="M62.2476 15.543L61.3372 16.4837C57.3762 12.6909 49.6354 3.19833 50.0712 3.76357C51.8766 3.09251 53.8219 2.88627 55.7279 3.16381C58.6749 3.66433 64.2583 5.14 64.172 8.61343C64.0857 12.0869 62.2476 15.543 62.2476 15.543Z" fill="#263238"/>
<path id="Vector_24" d="M67.4945 14.7577C67.4828 14.6869 67.464 14.6175 67.4384 14.5505C67.3727 14.3541 67.2904 14.1636 67.1925 13.981C66.8185 13.3125 66.3031 12.7338 65.6823 12.2853C64.767 11.6279 63.7452 11.1331 62.6619 10.8225C61.4538 10.4299 60.0946 10.1235 58.757 9.5281C57.4956 9.00256 56.2995 8.33213 55.1929 7.53034C54.2879 6.87489 53.4445 6.13832 52.6731 5.32978C52.1556 4.78288 51.6701 4.20662 51.219 3.60385L50.8566 3.10333C50.8161 3.04286 50.7699 2.98651 50.7185 2.93506C50.7487 3.00142 50.7848 3.06495 50.8264 3.12491C50.8997 3.24573 51.0076 3.42263 51.1586 3.64268C51.5906 4.26703 52.0649 4.861 52.5782 5.42039C54.2813 7.27215 56.3658 8.73249 58.688 9.70069C59.9732 10.1878 61.2823 10.6098 62.6101 10.9649C63.6887 11.2589 64.7099 11.733 65.6305 12.3672C66.2448 12.7989 66.7633 13.3527 67.1536 13.9939C67.378 14.4643 67.4729 14.7577 67.4945 14.7577Z" fill="#455A64"/>
<path id="Vector_25" d="M66.4417 15.3141C66.4535 15.044 66.4064 14.7746 66.3037 14.5245C66.0312 13.8344 65.5577 13.2422 64.9445 12.8245C64.0268 12.2333 62.9997 11.8328 61.9241 11.6465C60.6371 11.3886 59.3825 10.9892 58.1832 10.4556C56.9889 9.91074 55.8671 9.21938 54.8435 8.39748C54.0108 7.7233 53.245 6.97047 52.5566 6.14945C52.0878 5.59258 51.6554 5.00599 51.2622 4.39333L50.9558 3.88849C50.9242 3.82775 50.8851 3.77122 50.8393 3.72021C50.8634 3.78415 50.8922 3.84617 50.9256 3.90575L51.2018 4.43216C51.569 5.061 51.9815 5.66233 52.4358 6.23143C53.1159 7.07414 53.8808 7.84479 54.7184 8.53124C55.7479 9.36949 56.8804 10.0727 58.0882 10.6239C59.2982 11.1638 60.5666 11.562 61.868 11.8105C62.9242 11.9864 63.9356 12.3676 64.8453 12.9323C65.4468 13.3283 65.9205 13.8904 66.2087 14.5504C66.3097 14.7973 66.3877 15.0529 66.4417 15.3141Z" fill="#455A64"/>
<path id="Vector_26" d="M62.1269 21.6613C62.1269 21.6354 62.4332 21.5966 62.9683 21.4542C63.7184 21.2376 64.4091 20.8524 64.9876 20.328C65.8351 19.5349 66.4789 18.5492 66.8646 17.4544C67.3574 16.1201 67.6228 14.7127 67.6499 13.2906C67.6662 12.5558 67.6069 11.8213 67.4729 11.0986C67.1109 9.28106 66.2572 7.59762 65.0049 6.23152C64.2685 5.44957 63.4562 4.74278 62.5799 4.12158C62.5799 4.12158 62.6533 4.14747 62.7827 4.22513C62.9122 4.3028 63.0977 4.40636 63.3264 4.57033C63.9818 5.01995 64.5866 5.53933 65.13 6.11935C65.9438 6.97881 66.6023 7.97303 67.076 9.05774C67.3506 9.70113 67.5602 10.3704 67.7016 11.0555C67.8404 11.7936 67.9026 12.544 67.8872 13.2949C67.8613 14.7437 67.5854 16.1771 67.0717 17.532C66.6633 18.6524 65.9862 19.6555 65.0998 20.4532C64.4948 20.9794 63.7729 21.3536 62.9942 21.5448C62.7823 21.5929 62.5675 21.6275 62.3513 21.6484C62.2769 21.6585 62.2019 21.6629 62.1269 21.6613Z" fill="#455A64"/>
<path id="Vector_27" d="M66.7223 66.0652L45.3725 69.1675C37.3513 71.4371 28.9029 72.1016 20.0704 71.325L52.2029 86.3146L65.1042 86.5131C65.1042 86.5131 69.0307 86.5131 69.7168 83.0871C70.4028 79.6612 71.1665 69.2279 71.1665 69.2279C71.1665 69.2279 68.6165 67.0188 66.7223 66.0652Z" fill="#263238"/>
<g id="Group" opacity="0.3">
<path id="Vector_28" d="M66.6575 75.053C67.0105 77.1911 67.1378 79.3604 67.0372 81.5252C67.693 80.8053 68.176 79.9454 68.4497 79.0108C68.7233 78.0762 68.7803 77.0916 68.6164 76.1317C68.4309 75.0789 67.9908 73.9182 68.5431 72.9991C68.9141 72.3821 69.8936 71.6745 69.7512 70.9711C69.7512 70.9711 68.8882 70.9711 68.1159 70.9409C67.4902 70.9151 66.1915 70.8762 66.1915 70.8762C66.7503 72.2184 66.8711 73.7028 66.5367 75.1177" fill="black"/>
</g>
<path id="Vector_29" d="M51.5038 31.1971L61.8766 30.0752L63.7751 31.8011L56.3709 36.1591L53.1046 37.8505L49.8771 36.871L48.8545 34.9466L51.5038 31.1971Z" fill="#FFBF9D"/>
<path id="Vector_30" d="M37.5194 43.8267C37.5194 43.8267 40.7728 37.5874 41.5753 36.224C42.9474 33.8983 45.5104 32.5823 45.5104 32.5823L51.5037 31.1972C51.5037 31.1972 50.8824 34.2176 54.6104 34.4074C59.3567 34.6706 62.3037 30.1228 62.3037 30.1228C62.3037 30.1228 67.7145 30.6794 69.2074 31.3051C70.7004 31.9307 74.9289 33.7041 75.5502 39.322L77 48.4996L65.5657 49.3626L65.7211 61.5822L60.8626 65.5561C60.8626 65.5561 46.9128 70.3585 46.0196 70.6735C45.5881 70.8245 45.7003 64.896 44.7036 59.8131L42.8223 55.2437C42.0608 53.4186 41.6101 51.4789 41.489 49.505C41.4157 48.2105 41.4502 47.2181 41.4502 47.2181C41.4502 47.2181 38.5161 46.2128 37.5194 43.8267Z" fill="#455A64"/>
<path id="Vector_31" d="M46.5289 65.8839L65.6997 60.1322L65.5659 49.3711L75.326 48.6289C75.326 48.6289 74.5494 54.2037 74.4329 57.0601C74.2689 61.1721 72.2754 66.9194 70.981 68.1362C69.6866 69.353 46.0327 70.6819 46.0327 70.6819L46.5289 65.8839Z" fill="#FFBF9D"/>
<path id="Vector_32" d="M35.6556 69.2667C35.7481 69.4249 35.8949 69.5441 36.0688 69.6021C36.2426 69.66 36.4316 69.6528 36.6005 69.5817C37.032 69.4091 36.9155 68.5375 36.9155 68.5375L38.9564 68.037C38.9564 68.037 41.774 69.5644 42.8398 70.6259C43.9055 71.6873 46.2485 70.5784 46.2485 70.5784L46.7361 66.1039L42.6672 62.9584C42.6672 62.9584 42.9174 63.1483 42.6025 62.5269C42.2875 61.9056 41.1138 62.2422 41.1138 62.2422C40.9067 61.9358 40.1171 61.884 40.1171 61.884L36.8077 62.5269C36.4718 62.5923 36.1549 62.732 35.8801 62.9358C35.6054 63.1397 35.3797 63.4024 35.2198 63.7049L33.9814 66.0478C33.9814 66.0478 33.3601 67.7133 33.5111 68.0801C33.5762 68.2319 33.6948 68.3545 33.8444 68.4245C33.994 68.4945 34.1641 68.5071 34.3223 68.4598C34.3223 68.4598 34.5683 69.504 34.8487 69.517C35.1321 69.4819 35.406 69.3925 35.6556 69.2537V69.2667Z" fill="#FFBF9D"/>
<path id="Vector_33" d="M42.5116 65.5561C42.5116 65.5906 42.0801 65.5819 41.3552 65.6682C40.4321 65.7859 39.5293 66.0283 38.6714 66.3888C38.2004 66.5901 37.7459 66.8281 37.3123 67.1008C36.9282 67.3553 36.5226 67.5754 36.4148 67.8817C36.3915 67.9476 36.3856 68.0183 36.3977 68.0871C36.4098 68.1559 36.4395 68.2204 36.4838 68.2744C36.552 68.364 36.645 68.4315 36.7513 68.4686C36.9325 68.5247 37.0404 68.4686 37.049 68.4686C37.0577 68.4686 36.9498 68.5678 36.7298 68.529C36.5995 68.4999 36.4817 68.4304 36.3932 68.3305C36.3297 68.2622 36.2851 68.1785 36.2639 68.0877C36.2427 67.9968 36.2456 67.9021 36.2724 67.8127C36.346 67.6116 36.4783 67.4373 36.6521 67.3122C36.8247 67.1784 37.0059 67.0447 37.2087 66.9109C38.4448 66.1013 39.8649 65.6161 41.338 65.5C41.7296 65.4552 42.126 65.4741 42.5116 65.5561Z" fill="#FF9A6C"/>
<path id="Vector_34" d="M42.913 67.666C42.913 67.7264 41.5495 67.7781 39.8926 68.0025C38.2357 68.2269 36.9067 68.5376 36.8722 68.4772C37.146 68.3454 37.4363 68.2511 37.7352 68.1967C38.4344 68.0209 39.1432 67.8854 39.8581 67.7911C40.5734 67.694 41.2937 67.6378 42.0155 67.6228C42.3152 67.5962 42.6172 67.6107 42.913 67.666Z" fill="#FF9A6C"/>
<path id="Vector_35" d="M35.6685 69.1805C35.6335 69.0667 35.6104 68.9496 35.5995 68.831C35.555 68.5063 35.5291 68.1792 35.5218 67.8515C35.518 67.6235 35.5324 67.3955 35.5649 67.1698C35.6049 66.904 35.6973 66.6488 35.8368 66.419C36.1238 65.8871 36.514 65.4177 36.9845 65.0383C37.45 64.6578 37.9672 64.3454 38.5206 64.1106C38.9793 63.9403 39.4578 63.8287 39.9445 63.7783C40.376 63.7309 40.6866 63.7179 40.9196 63.705C41.0384 63.6875 41.159 63.6875 41.2778 63.705C40.851 63.8026 40.4187 63.8746 39.9833 63.9207C39.5138 63.9896 39.0535 64.1112 38.6112 64.2832C38.0803 64.5202 37.5839 64.8279 37.1355 65.1979C36.6883 65.5576 36.311 65.9964 36.0223 66.4924C35.792 66.9013 35.6771 67.3651 35.6901 67.8343C35.6556 68.667 35.716 69.1805 35.6685 69.1805Z" fill="#FF9A6C"/>
<path id="Vector_36" d="M40.0221 62.7558C40.0221 62.7903 39.5259 62.8421 38.7276 62.9931C37.9294 63.1441 36.7428 63.321 36.1387 64.4343C35.5222 65.2785 35.0242 66.2033 34.6588 67.1828C34.5448 67.5991 34.4712 68.0253 34.4387 68.4557C34.3984 68.3423 34.3822 68.2218 34.3912 68.1019C34.3834 67.7769 34.4241 67.4526 34.512 67.1396C34.8404 66.1258 35.33 65.1716 35.9618 64.3134C36.1297 64.0535 36.3314 63.817 36.5616 63.6101C36.7836 63.4197 37.0399 63.2732 37.3167 63.1786C37.7704 63.0213 38.2387 62.91 38.7147 62.8464C39.145 62.7617 39.5842 62.7312 40.0221 62.7558Z" fill="#FF9A6C"/>
<path id="Vector_37" d="M42.0372 69.9874C41.9625 69.9482 41.8917 69.9019 41.8258 69.8493L41.2346 69.448C40.4897 68.9573 39.7176 68.5093 38.9219 68.1061H38.9694L36.9328 68.6196L36.9975 68.5246C37.0169 68.6938 37.0169 68.8646 36.9975 69.0338C36.9848 69.2203 36.9172 69.399 36.8033 69.5473C36.7326 69.6218 36.6407 69.673 36.5401 69.694C36.4474 69.7264 36.349 69.7396 36.251 69.7328C36.0484 69.7182 35.8574 69.6327 35.7117 69.4912C35.6763 69.4543 35.6432 69.4154 35.6124 69.3747V69.3445L35.7333 69.379L35.6685 69.4092C35.5847 69.4532 35.4982 69.4921 35.4096 69.5257C35.3194 69.561 35.2272 69.5913 35.1335 69.6163C35.0842 69.6309 35.0336 69.6409 34.9825 69.6465C34.917 69.6572 34.8498 69.6498 34.7883 69.6249C34.6898 69.5625 34.6117 69.4724 34.5639 69.366C34.5161 69.2769 34.4743 69.1846 34.4388 69.0899C34.3663 68.9031 34.3072 68.7113 34.2619 68.516L34.387 68.5894C34.2495 68.6316 34.103 68.635 33.9637 68.5992C33.8243 68.5634 33.6976 68.4898 33.5974 68.3866C33.4932 68.2764 33.432 68.1325 33.4248 67.981C33.4245 67.8448 33.4375 67.709 33.4637 67.5754C33.5791 67.0559 33.7319 66.5454 33.921 66.0479L34.5812 64.7966L35.0127 64.007C35.1406 63.734 35.2968 63.4751 35.4787 63.2347C35.6764 63.0035 35.9185 62.8142 36.1906 62.6781C36.456 62.5561 36.7382 62.4747 37.0277 62.4364L40.143 61.8367H40.1689C40.3604 61.8512 40.5499 61.8859 40.7341 61.9402C40.9297 61.9835 41.1065 62.0877 41.239 62.238L41.1181 62.2121C41.2825 62.1211 41.4665 62.0712 41.6543 62.0667C41.8422 62.0622 42.0283 62.1032 42.1969 62.1862C42.4883 62.3703 42.7006 62.6564 42.7923 62.9887L42.7621 62.9499L45.5667 65.1073L46.3218 65.7028C46.4128 65.7687 46.4979 65.8423 46.5764 65.9228C46.4773 65.8716 46.3833 65.8109 46.2959 65.7416L45.5149 65.1763L42.6672 63.0793H42.6456V63.0491C42.5653 62.7601 42.3788 62.512 42.1235 62.3545C41.9812 62.2861 41.8245 62.2531 41.6667 62.2584C41.509 62.2637 41.3548 62.307 41.2174 62.3847L41.144 62.4192L41.0966 62.3588C40.9869 62.2451 40.8456 62.1669 40.691 62.1344C40.519 62.0868 40.3426 62.0564 40.1646 62.0438H40.1905L37.0752 62.6565C36.8032 62.6918 36.5383 62.769 36.2899 62.8852C36.0449 63.0065 35.8276 63.1768 35.6513 63.3857C35.4813 63.6154 35.3367 63.8628 35.2198 64.1235L34.7883 64.9131C34.5596 65.3446 34.3568 65.7761 34.1281 66.1644C33.9502 66.6516 33.806 67.1504 33.6967 67.6574C33.6719 67.7752 33.6588 67.8951 33.6578 68.0155C33.6636 68.1191 33.7065 68.2171 33.7786 68.2916C33.8528 68.3659 33.9457 68.4188 34.0475 68.4446C34.1493 68.4704 34.2562 68.4683 34.3568 68.4384L34.4604 68.4125V68.5117C34.5078 68.6972 34.5639 68.8871 34.6287 69.064C34.676 69.2259 34.7619 69.374 34.8789 69.4955C34.9071 69.5039 34.9371 69.5039 34.9652 69.4955L35.0903 69.4696C35.1775 69.4501 35.2628 69.4227 35.3449 69.3876C35.4269 69.3574 35.5089 69.3186 35.5909 69.2797L35.6513 69.2538L35.7764 69.2884V69.3099C35.7999 69.3435 35.8259 69.3752 35.8541 69.4049C35.9345 69.4906 36.0377 69.5516 36.1516 69.5806C36.2655 69.6097 36.3853 69.6056 36.497 69.5688C36.5659 69.557 36.6293 69.5238 36.6782 69.4739C36.8303 69.2136 36.8867 68.9084 36.8378 68.6109V68.5333H36.9069L38.9521 68.05H38.978C39.7732 68.464 40.5387 68.9326 41.2692 69.4523C41.5237 69.6379 41.7007 69.7846 41.843 69.8838C41.9101 69.9137 41.975 69.9483 42.0372 69.9874Z" fill="#FF9A6C"/>
<path id="Vector_38" d="M32.0699 72.7576C32.0699 72.7576 18.5429 68.5075 14.2971 67.1483C6.96193 64.7751 2.18974 67.1742 0.679549 69.789C-1.27938 73.1847 3.41946 79.808 5.23169 81.3311C10.595 85.8401 19.7899 86.4485 19.7899 86.4485L52.85 86.3881L43.215 73.2796L32.0699 72.7576Z" fill="#263238"/>
<path id="Vector_39" d="M34.0979 78.8931C28.5888 79.5343 23.007 78.7744 17.8698 76.6839C16.9934 76.2877 16.0909 75.9519 15.1687 75.6786C14.2571 75.4487 13.312 75.3815 12.377 75.4801C12.006 75.4895 11.6406 75.5735 11.3026 75.7269C10.9646 75.8803 10.6609 76.1001 10.4095 76.3732C9.74933 77.2362 10.0859 78.4789 10.4526 79.5058C10.8841 80.714 11.3156 81.948 12.1786 82.9145C13.158 84.0407 14.5819 84.6879 16.0101 85.1366C18.8018 85.9996 21.7488 86.2714 24.6743 86.3836L34.7192 85.8357L34.0979 78.8931Z" fill="#E0E0E0"/>
<path id="Vector_40" d="M14.6984 75.6829C14.7644 75.7638 14.8156 75.8559 14.8495 75.9547C14.9661 76.2122 15.0558 76.4812 15.117 76.7572C15.3339 77.6754 15.2958 78.6354 15.0068 79.5335C14.7178 80.4316 14.189 81.2336 13.4773 81.853C13.2655 82.0386 13.0373 82.2047 12.7956 82.3493C12.6187 82.4485 12.5195 82.4916 12.5108 82.4787C12.5022 82.4658 12.8733 82.2284 13.3738 81.7409C14.0305 81.113 14.52 80.3311 14.7981 79.4661C15.0761 78.6011 15.1338 77.6804 14.966 76.7875C14.8451 76.0971 14.6639 75.6958 14.6984 75.6829Z" fill="#263238"/>
<path id="Vector_41" d="M66.5972 71.9291C65.8119 69.7026 65.6824 66.432 60.8369 64.8614C55.9914 63.2908 52.3324 66.3025 49.8427 67.3467C47.3531 68.3909 33.7485 75.8555 33.7485 75.8555C33.7485 75.8555 31.1855 80.4249 31.9147 82.4443C32.6439 84.4636 35.9577 86.4571 35.9577 86.4571H51.176C55.1025 86.4571 62.3946 86.3233 62.3946 86.3233C63.3709 84.7229 64.2456 83.0628 65.0137 81.3526L65.1431 80.6968C65.156 80.1747 67.3782 74.1555 66.5972 71.9291Z" fill="#263238"/>
<path id="Vector_42" d="M58.166 83.4885C58.1463 83.5657 58.1077 83.6368 58.0538 83.6956C57.9063 83.8666 57.7382 84.0188 57.5533 84.1486C56.8738 84.6171 56.1514 85.0202 55.3959 85.3524C54.8798 85.5931 54.3496 85.802 53.8081 85.9781C53.1812 86.1754 52.5389 86.3197 51.888 86.4096C50.4028 86.5574 48.91 86.615 47.4178 86.5822C44.255 86.6339 41.3771 86.7548 39.3059 86.7289C38.2661 86.7289 37.4247 86.6814 36.8465 86.621C36.6234 86.6014 36.4016 86.5698 36.182 86.5261C36.1042 86.5167 36.0276 86.4994 35.9533 86.4743C35.9533 86.4527 36.2726 86.5088 36.8508 86.539C37.429 86.5692 38.2704 86.5908 39.3059 86.5822C41.3814 86.5822 44.2464 86.4225 47.4178 86.3707C48.9024 86.4028 50.3876 86.351 51.8664 86.2154C52.5058 86.137 53.1378 86.0071 53.7563 85.8271C54.2943 85.661 54.8217 85.4621 55.3355 85.2316C56.0859 84.916 56.8077 84.5363 57.4929 84.0968C57.6793 83.9722 57.8515 83.8275 58.0064 83.6654C58.1272 83.5618 58.1531 83.4841 58.166 83.4885Z" fill="#263238"/>
<path id="Vector_43" d="M35.9575 86.4571L35.7547 86.3492C35.6253 86.2758 35.4354 86.155 35.1895 85.9954C34.4739 85.5283 33.8036 84.9953 33.1874 84.4032C32.741 83.9752 32.3601 83.4838 32.0569 82.9448C31.747 82.2699 31.6682 81.5116 31.8326 80.7874C32.2026 79.0527 32.8232 77.3811 33.675 75.8253V75.8038C36.1689 74.4317 39.0297 72.874 42.1536 71.1955C43.7156 70.3585 45.3423 69.4912 47.0337 68.6066C47.8966 68.1752 48.7596 67.7437 49.6226 67.3122C50.4855 66.8807 51.3701 66.4492 52.2632 65.9832C53.4972 65.3071 54.8206 64.8089 56.194 64.5033C56.8687 64.3686 57.5557 64.3064 58.2436 64.3177C58.9166 64.338 59.5852 64.4335 60.237 64.6025C61.5007 64.9137 62.6872 65.4805 63.7234 66.268C64.2052 66.6671 64.6318 67.1286 64.9919 67.6401C65.3231 68.1444 65.5967 68.6843 65.8074 69.2496C66.0232 69.8018 66.1742 70.3585 66.3295 70.9021C66.5075 71.4303 66.6517 71.9693 66.761 72.5159C66.8288 73.56 66.7416 74.6083 66.5021 75.6269C66.308 76.5977 66.0706 77.5038 65.8247 78.3452C65.7039 78.7767 65.5831 79.1779 65.4709 79.5706C65.3587 79.9632 65.2293 80.3516 65.1689 80.6968C65.1171 80.9427 65.0782 81.1282 65.0351 81.3483C64.6195 82.6816 64.0321 83.9551 63.2876 85.1367C63.0238 85.5592 62.7126 85.9501 62.3599 86.3017L62.416 86.2241C62.4635 86.168 62.5239 86.0989 62.5972 86.004C62.8259 85.7164 63.0391 85.4168 63.2358 85.1065C63.9546 83.9178 64.5214 82.6436 64.9229 81.3138C65.1688 81.1067 65.1214 80.9039 65.048 80.6579C65.1234 80.2643 65.2214 79.8753 65.3414 79.4929L65.6909 78.2718C65.9239 77.4089 66.1569 76.52 66.3468 75.5578C66.5766 74.5554 66.658 73.5247 66.5884 72.4986C66.4749 71.963 66.3309 71.4342 66.1569 70.9151C65.9973 70.3714 65.842 69.8191 65.6305 69.2797C65.4246 68.7278 65.1568 68.2009 64.8323 67.7092C64.4822 67.2143 64.0672 66.7687 63.5983 66.3845C62.0465 65.2215 60.1771 64.5592 58.2393 64.486C57.5671 64.4749 56.8958 64.5371 56.2372 64.6715C54.88 64.9726 53.5724 65.4651 52.3538 66.1343C51.4909 66.5657 50.6279 67.0835 49.7002 67.4675C48.7725 67.8515 47.9743 68.3089 47.1113 68.762C45.4242 69.6249 43.7932 70.4879 42.2313 71.3509L33.7397 75.9289L33.7699 75.8944C32.9206 77.4324 32.2972 79.0846 31.9189 80.8003C31.7486 81.5 31.817 82.2366 32.113 82.893C32.4035 83.4273 32.773 83.9146 33.209 84.3385C33.8141 84.935 34.4711 85.4765 35.1722 85.9565L35.7245 86.3276C35.8799 86.4096 35.9575 86.4571 35.9575 86.4571Z" fill="#263238"/>
<path id="Vector_44" d="M60.7245 80.8088C60.7245 80.8088 65.2594 81.3525 64.8581 83.5703C64.4568 85.7882 62.9725 86.5346 62.9725 86.5346L50.6494 86.5605C50.6494 86.5605 58.0062 86.0513 60.7245 80.8088Z" fill="#E0E0E0"/>
<path id="Vector_45" d="M61.1646 79.7346C61.1636 79.9506 61.1165 80.1639 61.0265 80.3603C60.8596 80.8564 60.6117 81.3215 60.293 81.7367C59.8632 82.342 59.2621 82.8048 58.5671 83.0657C59.1393 82.6363 59.6643 82.1475 60.1333 81.6072C60.5289 81.013 60.8739 80.3866 61.1646 79.7346Z" fill="#263238"/>
<path id="Vector_46" d="M59.6113 80.6019C59.6186 81.1584 59.4691 81.7056 59.1799 82.1811C58.9584 82.6852 58.6196 83.1291 58.1918 83.4756C58.1443 83.4367 58.5887 82.8629 58.99 82.0732C59.3913 81.2836 59.5337 80.5933 59.6113 80.6019Z" fill="#263238"/>
<path id="Vector_47" d="M65.376 85.9177C65.3415 85.9177 65.6349 85.3395 65.9887 84.386C66.9176 81.8957 67.2242 79.2162 66.8819 76.5805C66.7481 75.5751 66.5928 74.9581 66.6273 74.9495C66.6956 75.086 66.7449 75.2311 66.774 75.3809C66.8806 75.7715 66.9656 76.1676 67.0286 76.5675C67.4604 79.2264 67.1498 81.9528 66.1311 84.4464C65.9773 84.814 65.803 85.1727 65.609 85.5208C65.5473 85.6619 65.4691 85.7951 65.376 85.9177Z" fill="#455A64"/>
<g id="Group_2" opacity="0.3">
<path id="Vector_48" d="M62.813 79.6138C62.7785 79.3161 62.662 78.9623 62.3815 78.9018C62.0191 78.8285 61.7731 79.2427 61.6307 79.5793C60.0429 83.1908 54.9126 86.0084 50.9818 86.3837C52.8882 86.3795 54.7913 86.2237 56.673 85.9177C58.2777 85.6774 59.7822 84.9895 61.0137 83.9329C61.626 83.4002 62.107 82.7333 62.4191 81.9841C62.7312 81.2348 62.866 80.4237 62.813 79.6138Z" fill="black"/>
</g>
<path id="Vector_49" d="M32.7905 74.6991C32.0391 74.4881 31.3083 74.2094 30.6072 73.8664C29.8784 73.5902 29.1765 73.2479 28.5102 72.8438C29.2607 73.0559 29.9912 73.3331 30.6935 73.6722C31.4225 73.9496 32.1244 74.2934 32.7905 74.6991Z" fill="#263238"/>
<g id="Group_3" opacity="0.2">
<path id="Vector_50" d="M37.1744 72.7919C31.3062 71.6701 25.4165 70.6734 19.5052 69.8018L15.1041 71.1911C16.3381 73.4866 18.776 74.9493 21.3088 75.5534C23.8416 76.1575 26.4866 76.0151 29.0754 75.7778C31.9319 75.5146 34.8659 75.1133 37.3513 73.6808C37.5411 73.5729 37.7569 73.4089 37.731 73.1889C37.7051 72.9688 37.4289 72.8394 37.1744 72.7919Z" fill="black"/>
</g>
<path id="Vector_51" d="M8.29087 55.317L15.6865 71.6702C15.8361 72.0035 16.0783 72.2868 16.3842 72.4865C16.6902 72.6861 17.0471 72.7937 17.4124 72.7964L38.9865 73.0768L41.7048 71.6141L37.4461 71.3034L30.8185 55.399C30.7154 55.1516 30.5418 54.9399 30.3193 54.7903C30.0968 54.6407 29.8353 54.5598 29.5673 54.5576L8.90358 54.4023C8.79335 54.3983 8.68393 54.4225 8.58569 54.4727C8.48746 54.5228 8.40367 54.5973 8.34229 54.6889C8.2809 54.7805 8.24396 54.8863 8.23496 54.9963C8.22596 55.1062 8.24521 55.2166 8.29087 55.317Z" fill="#E0E0E0"/>
<path id="Vector_52" d="M8.29093 55.317C8.25564 55.2561 8.23359 55.1885 8.22621 55.1185C8.21256 55.015 8.22384 54.9097 8.25911 54.8113C8.29438 54.713 8.35263 54.6246 8.429 54.5533C8.54694 54.4439 8.69978 54.3797 8.86049 54.3721H10.7547L19.4059 54.4023L25.4208 54.4325L28.782 54.4541H29.645C29.9646 54.4771 30.2677 54.6044 30.5079 54.8165C30.7394 55.0336 30.9104 55.3072 31.0041 55.6104L31.358 56.4734C33.2435 60.991 35.3276 65.9876 37.5368 71.2689L37.4332 71.1955L41.5452 71.4976H41.692L42.1234 71.5278L41.7567 71.7263L39.0383 73.189H39.0081H38.9779L22.6248 72.9646L18.9744 72.9129C18.379 72.9129 17.8094 72.9129 17.2183 72.8783C16.923 72.8435 16.639 72.7443 16.3863 72.5877C16.1336 72.4312 15.9183 72.2211 15.7556 71.9722C14.7934 69.9486 13.9908 68.0889 13.2098 66.363L9.594 58.277C9.16252 57.332 8.85186 56.5942 8.62748 56.0807C8.51961 55.8391 8.44195 55.6493 8.38154 55.5112C8.32113 55.3731 8.30387 55.3127 8.30387 55.3127C8.34072 55.3739 8.37386 55.4373 8.40311 55.5026L8.67063 56.0635C8.90363 56.5683 9.24019 57.3018 9.67599 58.2209L13.3608 66.281C14.1418 67.9767 14.9789 69.8839 15.9195 71.8514C16.0659 72.0758 16.2603 72.265 16.4886 72.4052C16.7169 72.5455 16.9735 72.6334 17.2399 72.6626C17.7922 72.6885 18.3919 72.6842 18.9658 72.6928L22.6161 72.7359L38.9693 72.9344H38.9089L41.6272 71.4674L41.679 71.6961H41.5323L37.4203 71.3983H37.3469L37.3167 71.3336C35.1205 66.0437 33.0407 61.0471 31.1595 56.5252L30.81 55.6838C30.733 55.4094 30.5841 55.1606 30.3785 54.9632C30.1734 54.7781 29.912 54.6672 29.6363 54.6482H28.7734L25.4121 54.618L19.4016 54.5576L10.7417 54.4541H9.38689H8.85186C8.76639 54.4572 8.68246 54.4778 8.60519 54.5144C8.52792 54.5511 8.45892 54.6031 8.4024 54.6673C8.34588 54.7315 8.30302 54.8065 8.27644 54.8878C8.24986 54.9691 8.24011 55.0549 8.24778 55.1401C8.25888 55.1998 8.27329 55.2589 8.29093 55.317Z" fill="#263238"/>
<path id="Vector_53" d="M36.7945 73.0465C36.7543 72.9902 36.721 72.9294 36.6953 72.8652L36.4494 72.3388C36.2336 71.8469 35.9402 71.1825 35.5864 70.3799C34.8658 68.7187 33.8864 66.4232 32.8335 63.8688C31.7807 61.3145 30.8487 58.9974 30.2058 57.3103C29.8822 56.4473 29.6276 55.7785 29.4637 55.2996C29.386 55.0795 29.3256 54.8983 29.2738 54.7473C29.2497 54.6831 29.2323 54.6166 29.222 54.5488C29.2615 54.6048 29.2935 54.6657 29.317 54.7301L29.5413 55.2694C29.7441 55.7699 30.016 56.4387 30.3439 57.2542C31.0429 58.9543 31.9878 61.2497 33.0277 63.7912C34.0676 66.3326 35.0255 68.6195 35.7245 70.3195L36.5313 72.3043C36.6133 72.5244 36.6824 72.7013 36.7385 72.848C36.7684 72.9104 36.7874 72.9776 36.7945 73.0465Z" fill="#263238"/>
<path id="Vector_54" d="M23.4188 63.2432C23.4197 63.4535 23.358 63.6593 23.2417 63.8345C23.1254 64.0097 22.9597 64.1464 22.7656 64.2273C22.5714 64.3082 22.3576 64.3295 22.1513 64.2887C21.945 64.2479 21.7555 64.1467 21.6068 63.998C21.4581 63.8493 21.3569 63.6598 21.3161 63.4535C21.2753 63.2472 21.2967 63.0334 21.3775 62.8393C21.4584 62.6452 21.5951 62.4794 21.7703 62.3631C21.9456 62.2468 22.1514 62.1852 22.3617 62.186C22.642 62.186 22.9109 62.2974 23.1092 62.4957C23.3074 62.6939 23.4188 62.9628 23.4188 63.2432Z" fill="white"/>
<path id="Vector_55" d="M44.4102 36.9358C44.4447 36.9358 44.1341 37.5356 43.6983 38.5021C42.5576 41.025 41.8124 43.7087 41.4891 46.4586C41.3596 47.5157 41.3251 48.1845 41.2863 48.1845C41.2632 48.0301 41.2632 47.873 41.2863 47.7185C41.2863 47.4208 41.2863 46.9893 41.3467 46.4543C41.5906 43.6697 42.3484 40.9544 43.5818 38.446C43.8191 37.967 44.0133 37.583 44.1815 37.3328C44.2415 37.1917 44.3182 37.0584 44.4102 36.9358Z" fill="#263238"/>
<path id="Vector_56" d="M77 48.4996C76.923 48.5231 76.8432 48.5362 76.7627 48.5385L76.0766 48.6032L73.5136 48.8189L64.7502 49.4791H64.638V49.3669C64.5647 48.2019 64.487 46.9722 64.4093 45.7122C64.2842 43.5117 64.1763 41.3974 64.1418 39.5032C64.0302 37.7968 64.4186 36.095 65.2594 34.6059C65.8366 33.6016 66.6883 32.7829 67.7145 32.2457C67.9915 32.1068 68.2803 31.9927 68.5775 31.9048C68.6808 31.8725 68.786 31.8466 68.8924 31.8271C68.8924 31.8617 68.461 31.9523 67.749 32.3234C66.7595 32.8791 65.9428 33.6974 65.3888 34.6879C64.5892 36.162 64.2312 37.8353 64.3576 39.5075C64.4007 41.4104 64.5129 43.5074 64.638 45.7079C64.7157 46.9679 64.789 48.1976 64.8624 49.3583L64.7416 49.2547L73.5136 48.6765L76.1025 48.5255L76.7886 48.4996H77Z" fill="#263238"/>
<path id="Vector_57" d="M55.4994 55.9729C55.3664 55.947 55.2383 55.9004 55.1197 55.8348C54.9712 55.7725 54.8271 55.7005 54.6882 55.6191C54.5021 55.5189 54.322 55.408 54.1489 55.2868C53.6898 54.9771 53.2659 54.6183 52.8846 54.2168C52.4233 53.7191 52.0181 53.1721 51.6765 52.5858C51.3469 51.9928 51.0849 51.3646 50.8955 50.7131C50.7452 50.1809 50.6526 49.6341 50.6193 49.0821C50.6067 48.8709 50.6067 48.6591 50.6193 48.4478C50.62 48.2876 50.6315 48.1276 50.6539 47.9689C50.6578 47.8318 50.684 47.6963 50.7315 47.5676C50.7747 47.5676 50.7013 48.1501 50.7919 49.0692C50.8462 49.6059 50.9516 50.1361 51.1069 50.6527C51.3053 51.2844 51.567 51.8944 51.8879 52.4736C52.2183 53.0446 52.6073 53.5797 53.0486 54.0701C53.4156 54.4674 53.8186 54.83 54.2524 55.1531C54.9859 55.7011 55.521 55.9341 55.4994 55.9729Z" fill="#263238"/>
</g>
</svg>
