<svg width="16" height="16" viewBox="0 0 16 16" fill="none" xmlns="http://www.w3.org/2000/svg">
<mask id="mask0_200_10568" style="mask-type:alpha" maskUnits="userSpaceOnUse" x="0" y="0" width="16" height="16">
<rect width="16" height="16" fill="#D9D9D9"/>
</mask>
<g mask="url(#mask0_200_10568)">
<path d="M6.45057 9.13264L7.0339 7.23264L5.50057 5.99931H7.40057L8.00057 4.13264L8.60057 5.99931H10.5006L8.95057 7.23264L9.5339 9.13264L8.00057 7.94931L6.45057 9.13264ZM4.00057 15.3326V10.1826C3.57835 9.71598 3.25057 9.18264 3.01724 8.58264C2.7839 7.98264 2.66724 7.34375 2.66724 6.66598C2.66724 5.17709 3.1839 3.91598 4.21724 2.88264C5.25057 1.84931 6.51168 1.33264 8.00057 1.33264C9.48946 1.33264 10.7506 1.84931 11.7839 2.88264C12.8172 3.91598 13.3339 5.17709 13.3339 6.66598C13.3339 7.34375 13.2172 7.98264 12.9839 8.58264C12.7506 9.18264 12.4228 9.71598 12.0006 10.1826V15.3326L8.00057 13.9993L4.00057 15.3326ZM8.00057 10.666C9.11168 10.666 10.0561 10.2771 10.8339 9.49931C11.6117 8.72153 12.0006 7.77709 12.0006 6.66598C12.0006 5.55486 11.6117 4.61042 10.8339 3.83264C10.0561 3.05486 9.11168 2.66597 8.00057 2.66597C6.88946 2.66597 5.94501 3.05486 5.16724 3.83264C4.38946 4.61042 4.00057 5.55486 4.00057 6.66598C4.00057 7.77709 4.38946 8.72153 5.16724 9.49931C5.94501 10.2771 6.88946 10.666 8.00057 10.666ZM5.3339 13.3493L8.00057 12.666L10.6672 13.3493V11.2826C10.2783 11.5049 9.8589 11.6799 9.4089 11.8076C8.9589 11.9354 8.48946 11.9993 8.00057 11.9993C7.51168 11.9993 7.04224 11.9354 6.59224 11.8076C6.14224 11.6799 5.72279 11.5049 5.3339 11.2826V13.3493Z" fill="#383838"/>
</g>
</svg>
